<svg xmlns="http://www.w3.org/2000/svg" xmlns:xlink="http://www.w3.org/1999/xlink" xmlns:s="https://github.com/nturley/netlistsvg" width="1496" height="1078.5">
  <style>svg {
    stroke:#000;
    fill:none;
  }
  text {
    fill:#000;
    stroke:none;
    font-size:10px;
    font-weight: bold;
    font-family: "Courier New", monospace;
  }
  .nodelabel {
    text-anchor: middle;
  }
  .inputPortLabel {
    text-anchor: end;
  }
  .splitjoinBody {
    fill:#000;
  }</style>
  <g s:type="add" transform="translate(1208.6666666666667,463.5)" s:width="25" s:height="25" id="cell_$add$CPU/cpu_32bit.v:275$246">
    <s:alias val="$add"/>
    <circle r="12.5" cx="12.5" cy="12.5" class="cell_$add$CPU/cpu_32bit.v:275$246"/>
    <line x1="7.5" x2="17.5" y1="12.5" y2="12.5" class="cell_$add$CPU/cpu_32bit.v:275$246"/>
    <line x1="12.5" x2="12.5" y1="7.5" y2="17.5" class="cell_$add$CPU/cpu_32bit.v:275$246"/>
    <g s:x="3" s:y="5" s:pid="A"/>
    <g s:x="3" s:y="20" s:pid="B"/>
    <g s:x="25" s:y="12.5" s:pid="Y"/>
  </g>
  <g s:type="add" transform="translate(1208.6666666666667,55.5)" s:width="25" s:height="25" id="cell_$add$CPU/cpu_32bit.v:276$248">
    <s:alias val="$add"/>
    <circle r="12.5" cx="12.5" cy="12.5" class="cell_$add$CPU/cpu_32bit.v:276$248"/>
    <line x1="7.5" x2="17.5" y1="12.5" y2="12.5" class="cell_$add$CPU/cpu_32bit.v:276$248"/>
    <line x1="12.5" x2="12.5" y1="7.5" y2="17.5" class="cell_$add$CPU/cpu_32bit.v:276$248"/>
    <g s:x="3" s:y="5" s:pid="A"/>
    <g s:x="3" s:y="20" s:pid="B"/>
    <g s:x="25" s:y="12.5" s:pid="Y"/>
  </g>
  <g s:type="and" transform="translate(659,748)" s:width="30" s:height="25" id="cell_$and$CPU/cpu_32bit.v:248$239">
    <s:alias val="$and"/>
    <s:alias val="$logic_and"/>
    <s:alias val="$_AND_"/>
    <path d="M0,0 L0,25 L15,25 A15 12.5 0 0 0 15,0 Z" class="cell_$and$CPU/cpu_32bit.v:248$239"/>
    <g s:x="0" s:y="5" s:pid="A"/>
    <g s:x="0" s:y="20" s:pid="B"/>
    <g s:x="30" s:y="12.5" s:pid="Y"/>
  </g>
  <g s:type="and" transform="translate(1293,859)" s:width="30" s:height="25" id="cell_$and$CPU/cpu_32bit.v:269$242">
    <s:alias val="$and"/>
    <s:alias val="$logic_and"/>
    <s:alias val="$_AND_"/>
    <path d="M0,0 L0,25 L15,25 A15 12.5 0 0 0 15,0 Z" class="cell_$and$CPU/cpu_32bit.v:269$242"/>
    <g s:x="0" s:y="5" s:pid="A"/>
    <g s:x="0" s:y="20" s:pid="B"/>
    <g s:x="30" s:y="12.5" s:pid="Y"/>
  </g>
  <g s:type="and" transform="translate(1293,794)" s:width="30" s:height="25" id="cell_$and$CPU/cpu_32bit.v:270$244">
    <s:alias val="$and"/>
    <s:alias val="$logic_and"/>
    <s:alias val="$_AND_"/>
    <path d="M0,0 L0,25 L15,25 A15 12.5 0 0 0 15,0 Z" class="cell_$and$CPU/cpu_32bit.v:270$244"/>
    <g s:x="0" s:y="5" s:pid="A"/>
    <g s:x="0" s:y="20" s:pid="B"/>
    <g s:x="30" s:y="12.5" s:pid="Y"/>
  </g>
  <g s:type="and" transform="translate(1207,752.5)" s:width="30" s:height="25" id="cell_$and$CPU/cpu_32bit.v:277$249">
    <s:alias val="$and"/>
    <s:alias val="$logic_and"/>
    <s:alias val="$_AND_"/>
    <path d="M0,0 L0,25 L15,25 A15 12.5 0 0 0 15,0 Z" class="cell_$and$CPU/cpu_32bit.v:277$249"/>
    <g s:x="0" s:y="5" s:pid="A"/>
    <g s:x="0" s:y="20" s:pid="B"/>
    <g s:x="30" s:y="12.5" s:pid="Y"/>
  </g>
  <g s:type="generic" transform="translate(1022,359.5)" s:width="30" s:height="40" id="cell_$auto$ff.cc:337:slice$402">
    <text x="15" y="-4" class="nodelabel cell_$auto$ff.cc:337:slice$402" s:attribute="ref">$adffe</text>
    <rect width="30" height="80" s:generic="body" class="cell_$auto$ff.cc:337:slice$402"/>
    <g transform="translate(0,10)" s:x="0" s:y="10" s:pid="in0" id="port_$auto$ff.cc:337:slice$402~ARST">
      <text x="-3" y="-4" class="inputPortLabel cell_$auto$ff.cc:337:slice$402">ARST</text>
    </g>
    <g transform="translate(0,30)" s:x="0" s:y="10" s:pid="in0" id="port_$auto$ff.cc:337:slice$402~CLK">
      <text x="-3" y="-4" class="inputPortLabel cell_$auto$ff.cc:337:slice$402">CLK</text>
    </g>
    <g transform="translate(0,50)" s:x="0" s:y="10" s:pid="in0" id="port_$auto$ff.cc:337:slice$402~D">
      <text x="-3" y="-4" class="inputPortLabel cell_$auto$ff.cc:337:slice$402">D</text>
    </g>
    <g transform="translate(0,70)" s:x="0" s:y="10" s:pid="in0" id="port_$auto$ff.cc:337:slice$402~EN">
      <text x="-3" y="-4" class="inputPortLabel cell_$auto$ff.cc:337:slice$402">EN</text>
    </g>
    <g transform="translate(30,10)" s:x="30" s:y="10" s:pid="out0" id="port_$auto$ff.cc:337:slice$402~Q">
      <text x="5" y="-4" style="fill:#000; stroke:none" class="cell_$auto$ff.cc:337:slice$402">Q</text>
    </g>
  </g>
  <g s:type="generic" transform="translate(407,493)" s:width="30" s:height="40" id="cell_$auto$ff.cc:337:slice$403">
    <text x="15" y="-4" class="nodelabel cell_$auto$ff.cc:337:slice$403" s:attribute="ref">$adffe</text>
    <rect width="30" height="80" s:generic="body" class="cell_$auto$ff.cc:337:slice$403"/>
    <g transform="translate(0,10)" s:x="0" s:y="10" s:pid="in0" id="port_$auto$ff.cc:337:slice$403~ARST">
      <text x="-3" y="-4" class="inputPortLabel cell_$auto$ff.cc:337:slice$403">ARST</text>
    </g>
    <g transform="translate(0,30)" s:x="0" s:y="10" s:pid="in0" id="port_$auto$ff.cc:337:slice$403~CLK">
      <text x="-3" y="-4" class="inputPortLabel cell_$auto$ff.cc:337:slice$403">CLK</text>
    </g>
    <g transform="translate(0,50)" s:x="0" s:y="10" s:pid="in0" id="port_$auto$ff.cc:337:slice$403~D">
      <text x="-3" y="-4" class="inputPortLabel cell_$auto$ff.cc:337:slice$403">D</text>
    </g>
    <g transform="translate(0,70)" s:x="0" s:y="10" s:pid="in0" id="port_$auto$ff.cc:337:slice$403~EN">
      <text x="-3" y="-4" class="inputPortLabel cell_$auto$ff.cc:337:slice$403">EN</text>
    </g>
    <g transform="translate(30,10)" s:x="30" s:y="10" s:pid="out0" id="port_$auto$ff.cc:337:slice$403~Q">
      <text x="5" y="-4" style="fill:#000; stroke:none" class="cell_$auto$ff.cc:337:slice$403">Q</text>
    </g>
  </g>
  <g s:type="not" transform="translate(592,493.5)" s:width="30" s:height="20" id="cell_$not$CPU/cpu_32bit.v:286$253">
    <s:alias val="$_NOT_"/>
    <s:alias val="$not"/>
    <s:alias val="$logic_not"/>
    <path d="M0,0 L0,20 L20,10 Z" class="cell_$not$CPU/cpu_32bit.v:286$253"/>
    <circle cx="23" cy="10" r="3" class="cell_$not$CPU/cpu_32bit.v:286$253"/>
    <g s:x="0" s:y="10" s:pid="A"/>
    <g s:x="25" s:y="10" s:pid="Y"/>
  </g>
  <g s:type="mux" transform="translate(935.3333333333334,670.5)" s:width="20" s:height="40" id="cell_$ternary$CPU/cpu_32bit.v:257$240">
    <s:alias val="$pmux"/>
    <s:alias val="$mux"/>
    <s:alias val="$_MUX_"/>
    <path d="M0,0 L20,10 L20,30 L0,40 Z" class="cell_$ternary$CPU/cpu_32bit.v:257$240"/>
    <g s:x="0" s:y="10" s:pid="A"/>
    <g s:x="0" s:y="30" s:pid="B"/>
    <g s:x="10" s:y="35" s:pid="S"/>
    <g s:x="20" s:y="20" s:pid="Y"/>
  </g>
  <g s:type="mux" transform="translate(1390,916.5)" s:width="20" s:height="40" id="cell_$ternary$CPU/cpu_32bit.v:272$245">
    <s:alias val="$pmux"/>
    <s:alias val="$mux"/>
    <s:alias val="$_MUX_"/>
    <path d="M0,0 L20,10 L20,30 L0,40 Z" class="cell_$ternary$CPU/cpu_32bit.v:272$245"/>
    <g s:x="0" s:y="10" s:pid="A"/>
    <g s:x="0" s:y="30" s:pid="B"/>
    <g s:x="10" s:y="35" s:pid="S"/>
    <g s:x="20" s:y="20" s:pid="Y"/>
  </g>
  <g s:type="mux" transform="translate(1390,568.5)" s:width="20" s:height="40" id="cell_$ternary$CPU/cpu_32bit.v:279$251">
    <s:alias val="$pmux"/>
    <s:alias val="$mux"/>
    <s:alias val="$_MUX_"/>
    <path d="M0,0 L20,10 L20,30 L0,40 Z" class="cell_$ternary$CPU/cpu_32bit.v:279$251"/>
    <g s:x="0" s:y="10" s:pid="A"/>
    <g s:x="0" s:y="30" s:pid="B"/>
    <g s:x="10" s:y="35" s:pid="S"/>
    <g s:x="20" s:y="20" s:pid="Y"/>
  </g>
  <g s:type="mux" transform="translate(1296.3333333333333,466)" s:width="20" s:height="40" id="cell_$ternary$CPU/cpu_32bit.v:280$250">
    <s:alias val="$pmux"/>
    <s:alias val="$mux"/>
    <s:alias val="$_MUX_"/>
    <path d="M0,0 L20,10 L20,30 L0,40 Z" class="cell_$ternary$CPU/cpu_32bit.v:280$250"/>
    <g s:x="0" s:y="10" s:pid="A"/>
    <g s:x="0" s:y="30" s:pid="B"/>
    <g s:x="10" s:y="35" s:pid="S"/>
    <g s:x="20" s:y="20" s:pid="Y"/>
  </g>
  <g s:type="generic" transform="translate(1064.8,640)" s:width="30" s:height="40" id="cell_ALU">
    <text x="15" y="-4" class="nodelabel cell_ALU" s:attribute="ref">alu_32bit</text>
    <rect width="30" height="60" s:generic="body" class="cell_ALU"/>
    <g transform="translate(0,10)" s:x="0" s:y="10" s:pid="in0" id="port_ALU~a">
      <text x="-3" y="-4" class="inputPortLabel cell_ALU">a</text>
    </g>
    <g transform="translate(0,30)" s:x="0" s:y="10" s:pid="in0" id="port_ALU~alu_ctrl">
      <text x="-3" y="-4" class="inputPortLabel cell_ALU">alu_ctrl</text>
    </g>
    <g transform="translate(0,50)" s:x="0" s:y="10" s:pid="in0" id="port_ALU~b">
      <text x="-3" y="-4" class="inputPortLabel cell_ALU">b</text>
    </g>
    <g transform="translate(30,10)" s:x="30" s:y="10" s:pid="out0" id="port_ALU~result">
      <text x="5" y="-4" style="fill:#000; stroke:none" class="cell_ALU">result</text>
    </g>
    <g transform="translate(30,30)" s:x="30" s:y="10" s:pid="out0" id="port_ALU~zero">
      <text x="5" y="-4" style="fill:#000; stroke:none" class="cell_ALU">zero</text>
    </g>
  </g>
  <g s:type="generic" transform="translate(220,598.5)" s:width="30" s:height="40" id="cell_CTRL">
    <text x="15" y="-4" class="nodelabel cell_CTRL" s:attribute="ref">control_unit</text>
    <rect width="30" height="180" s:generic="body" class="cell_CTRL"/>
    <g transform="translate(0,10)" s:x="0" s:y="10" s:pid="in0" id="port_CTRL~opcode">
      <text x="-3" y="-4" class="inputPortLabel cell_CTRL">opcode</text>
    </g>
    <g transform="translate(30,10)" s:x="30" s:y="10" s:pid="out0" id="port_CTRL~alu_ctrl">
      <text x="5" y="-4" style="fill:#000; stroke:none" class="cell_CTRL">alu_ctrl</text>
    </g>
    <g transform="translate(30,30)" s:x="30" s:y="10" s:pid="out0" id="port_CTRL~alu_src">
      <text x="5" y="-4" style="fill:#000; stroke:none" class="cell_CTRL">alu_src</text>
    </g>
    <g transform="translate(30,50)" s:x="30" s:y="10" s:pid="out0" id="port_CTRL~branch">
      <text x="5" y="-4" style="fill:#000; stroke:none" class="cell_CTRL">branch</text>
    </g>
    <g transform="translate(30,70)" s:x="30" s:y="10" s:pid="out0" id="port_CTRL~halt">
      <text x="5" y="-4" style="fill:#000; stroke:none" class="cell_CTRL">halt</text>
    </g>
    <g transform="translate(30,90)" s:x="30" s:y="10" s:pid="out0" id="port_CTRL~jump">
      <text x="5" y="-4" style="fill:#000; stroke:none" class="cell_CTRL">jump</text>
    </g>
    <g transform="translate(30,110)" s:x="30" s:y="10" s:pid="out0" id="port_CTRL~mem_read">
      <text x="5" y="-4" style="fill:#000; stroke:none" class="cell_CTRL">mem_read</text>
    </g>
    <g transform="translate(30,130)" s:x="30" s:y="10" s:pid="out0" id="port_CTRL~mem_to_reg">
      <text x="5" y="-4" style="fill:#000; stroke:none" class="cell_CTRL">mem_to_reg</text>
    </g>
    <g transform="translate(30,150)" s:x="30" s:y="10" s:pid="out0" id="port_CTRL~mem_write">
      <text x="5" y="-4" style="fill:#000; stroke:none" class="cell_CTRL">mem_write</text>
    </g>
    <g transform="translate(30,170)" s:x="30" s:y="10" s:pid="out0" id="port_CTRL~reg_write">
      <text x="5" y="-4" style="fill:#000; stroke:none" class="cell_CTRL">reg_write</text>
    </g>
  </g>
  <g s:type="generic" transform="translate(802,650)" s:width="30" s:height="40" id="cell_REGFILE">
    <text x="15" y="-4" class="nodelabel cell_REGFILE" s:attribute="ref">register_file_32bit</text>
    <rect width="30" height="140" s:generic="body" class="cell_REGFILE"/>
    <g transform="translate(0,10)" s:x="0" s:y="10" s:pid="in0" id="port_REGFILE~clk">
      <text x="-3" y="-4" class="inputPortLabel cell_REGFILE">clk</text>
    </g>
    <g transform="translate(0,30)" s:x="0" s:y="10" s:pid="in0" id="port_REGFILE~rd_addr">
      <text x="-3" y="-4" class="inputPortLabel cell_REGFILE">rd_addr</text>
    </g>
    <g transform="translate(0,50)" s:x="0" s:y="10" s:pid="in0" id="port_REGFILE~rs1_addr">
      <text x="-3" y="-4" class="inputPortLabel cell_REGFILE">rs1_addr</text>
    </g>
    <g transform="translate(0,70)" s:x="0" s:y="10" s:pid="in0" id="port_REGFILE~rs2_addr">
      <text x="-3" y="-4" class="inputPortLabel cell_REGFILE">rs2_addr</text>
    </g>
    <g transform="translate(0,90)" s:x="0" s:y="10" s:pid="in0" id="port_REGFILE~rst">
      <text x="-3" y="-4" class="inputPortLabel cell_REGFILE">rst</text>
    </g>
    <g transform="translate(0,110)" s:x="0" s:y="10" s:pid="in0" id="port_REGFILE~we">
      <text x="-3" y="-4" class="inputPortLabel cell_REGFILE">we</text>
    </g>
    <g transform="translate(0,130)" s:x="0" s:y="10" s:pid="in0" id="port_REGFILE~wr_data">
      <text x="-3" y="-4" class="inputPortLabel cell_REGFILE">wr_data</text>
    </g>
    <g transform="translate(30,10)" s:x="30" s:y="10" s:pid="out0" id="port_REGFILE~rs1_data">
      <text x="5" y="-4" style="fill:#000; stroke:none" class="cell_REGFILE">rs1_data</text>
    </g>
    <g transform="translate(30,30)" s:x="30" s:y="10" s:pid="out0" id="port_REGFILE~rs2_data">
      <text x="5" y="-4" style="fill:#000; stroke:none" class="cell_REGFILE">rs2_data</text>
    </g>
  </g>
  <g s:type="inputExt" transform="translate(220,380)" s:width="30" s:height="20" id="cell_clk">
    <text x="15" y="-4" class="nodelabel cell_clk" s:attribute="ref">clk</text>
    <s:alias val="$_inputExt_"/>
    <path d="M0,0 L0,20 L15,20 L30,10 L15,0 Z" class="cell_clk"/>
    <g s:x="28" s:y="10" s:pid="Y"/>
  </g>
  <g s:type="inputExt" transform="translate(220,315)" s:width="30" s:height="20" id="cell_rst">
    <text x="15" y="-4" class="nodelabel cell_rst" s:attribute="ref">rst</text>
    <s:alias val="$_inputExt_"/>
    <path d="M0,0 L0,20 L15,20 L30,10 L15,0 Z" class="cell_rst"/>
    <g s:x="28" s:y="10" s:pid="Y"/>
  </g>
  <g s:type="inputExt" transform="translate(12,165.5)" s:width="30" s:height="20" id="cell_instruction">
    <text x="15" y="-4" class="nodelabel cell_instruction" s:attribute="ref">instruction</text>
    <s:alias val="$_inputExt_"/>
    <path d="M0,0 L0,20 L15,20 L30,10 L15,0 Z" class="cell_instruction"/>
    <g s:x="28" s:y="10" s:pid="Y"/>
  </g>
  <g s:type="inputExt" transform="translate(1277,936.5)" s:width="30" s:height="20" id="cell_mem_read_data">
    <text x="15" y="-4" class="nodelabel cell_mem_read_data" s:attribute="ref">mem_read_data</text>
    <s:alias val="$_inputExt_"/>
    <path d="M0,0 L0,20 L15,20 L30,10 L15,0 Z" class="cell_mem_read_data"/>
    <g s:x="28" s:y="10" s:pid="Y"/>
  </g>
  <g s:type="outputExt" transform="translate(1390,360)" s:width="30" s:height="20" id="cell_pc">
    <text x="15" y="-4" class="nodelabel cell_pc" s:attribute="ref">pc</text>
    <s:alias val="$_outputExt_"/>
    <path d="M30,0 L30,20 L15,20 L0,10 L15,0 Z" class="cell_pc"/>
    <g s:x="0" s:y="10" s:pid="A"/>
  </g>
  <g s:type="outputExt" transform="translate(1390,640.5)" s:width="30" s:height="20" id="cell_mem_addr">
    <text x="15" y="-4" class="nodelabel cell_mem_addr" s:attribute="ref">mem_addr</text>
    <s:alias val="$_outputExt_"/>
    <path d="M30,0 L30,20 L15,20 L0,10 L15,0 Z" class="cell_mem_addr"/>
    <g s:x="0" s:y="10" s:pid="A"/>
  </g>
  <g s:type="outputExt" transform="translate(1390,731.5)" s:width="30" s:height="20" id="cell_mem_write_data">
    <text x="15" y="-4" class="nodelabel cell_mem_write_data" s:attribute="ref">mem_write_data</text>
    <s:alias val="$_outputExt_"/>
    <path d="M30,0 L30,20 L15,20 L0,10 L15,0 Z" class="cell_mem_write_data"/>
    <g s:x="0" s:y="10" s:pid="A"/>
  </g>
  <g s:type="outputExt" transform="translate(1390,861.5)" s:width="30" s:height="20" id="cell_mem_write_en">
    <text x="15" y="-4" class="nodelabel cell_mem_write_en" s:attribute="ref">mem_write_en</text>
    <s:alias val="$_outputExt_"/>
    <path d="M30,0 L30,20 L15,20 L0,10 L15,0 Z" class="cell_mem_write_en"/>
    <g s:x="0" s:y="10" s:pid="A"/>
  </g>
  <g s:type="outputExt" transform="translate(1390,796.5)" s:width="30" s:height="20" id="cell_mem_read_en">
    <text x="15" y="-4" class="nodelabel cell_mem_read_en" s:attribute="ref">mem_read_en</text>
    <s:alias val="$_outputExt_"/>
    <path d="M30,0 L30,20 L15,20 L0,10 L15,0 Z" class="cell_mem_read_en"/>
    <g s:x="0" s:y="10" s:pid="A"/>
  </g>
  <g s:type="outputExt" transform="translate(1390,513.5)" s:width="30" s:height="20" id="cell_halted">
    <text x="15" y="-4" class="nodelabel cell_halted" s:attribute="ref">halted</text>
    <s:alias val="$_outputExt_"/>
    <path d="M30,0 L30,20 L15,20 L0,10 L15,0 Z" class="cell_halted"/>
    <g s:x="0" s:y="10" s:pid="A"/>
  </g>
  <g s:type="constant" transform="translate(1022,473.5)" s:width="30" s:height="20" id="cell_00000000000000000000000000000100">
    <text x="15" y="-4" class="nodelabel cell_00000000000000000000000000000100" s:attribute="ref">0x4</text>
    <s:alias val="$_constant_"/>
    <rect width="30" height="20" class="cell_00000000000000000000000000000100"/>
    <g s:x="30" s:y="10" s:pid="Y"/>
  </g>
  <g s:type="constant" transform="translate(932,55.5)" s:width="30" s:height="20" id="cell_00">
    <text x="15" y="-4" class="nodelabel cell_00" s:attribute="ref">00</text>
    <s:alias val="$_constant_"/>
    <rect width="30" height="20" class="cell_00"/>
    <g s:x="30" s:y="10" s:pid="Y"/>
  </g>
  <g s:type="constant" transform="translate(220,533.5)" s:width="30" s:height="20" id="cell_1">
    <text x="15" y="-4" class="nodelabel cell_1" s:attribute="ref">1</text>
    <s:alias val="$_constant_"/>
    <rect width="30" height="20" class="cell_1"/>
    <g s:x="30" s:y="10" s:pid="Y"/>
  </g>
  <g s:type="join" transform="translate(1070.3333333333333,55)" s:width="4" s:height="40" id="cell_$join$,439,440,4,5,6,7,8,9,10,11,12,13,14,15,16,17,18,19,20,21,22,22,22,22,22,22,22,22,22,22,22,22,">
    <rect width="5" height="40" class="splitjoinBody" s:generic="body"/>
    <s:alias val="$_join_"/>
    <g s:x="5" s:y="20" s:pid="out"/>
    <g transform="translate(0,10)" s:x="0" s:y="10" s:pid="in0">
      <text x="-3" y="-4" class="inputPortLabel">0:1</text>
    </g>
    <g transform="translate(0,30)" s:x="0" s:y="10" s:pid="in0">
      <text x="-3" y="-4" class="inputPortLabel">2:31</text>
    </g>
  </g>
  <g s:type="join" transform="translate(594.6,55)" s:width="4" s:height="40" id="cell_$join$,4,5,6,7,8,9,10,11,12,13,14,15,16,17,18,19,20,21,22,22,22,22,22,22,22,22,22,22,22,22,">
    <rect width="5" height="240" class="splitjoinBody" s:generic="body"/>
    <s:alias val="$_join_"/>
    <g s:x="5" s:y="20" s:pid="out"/>
    <g transform="translate(0,10)" s:x="0" s:y="10" s:pid="in0">
      <text x="-3" y="-4" class="inputPortLabel">0:18</text>
    </g>
    <g transform="translate(0,30)" s:x="0" s:y="10" s:pid="in0">
      <text x="-3" y="-4" class="inputPortLabel">19</text>
    </g>
    <g transform="translate(0,50)" s:x="0" s:y="10" s:pid="in0">
      <text x="-3" y="-4" class="inputPortLabel">20</text>
    </g>
    <g transform="translate(0,70)" s:x="0" s:y="10" s:pid="in0">
      <text x="-3" y="-4" class="inputPortLabel">21</text>
    </g>
    <g transform="translate(0,90)" s:x="0" s:y="10" s:pid="in0">
      <text x="-3" y="-4" class="inputPortLabel">22</text>
    </g>
    <g transform="translate(0,110)" s:x="0" s:y="10" s:pid="in0">
      <text x="-3" y="-4" class="inputPortLabel">23</text>
    </g>
    <g transform="translate(0,130)" s:x="0" s:y="10" s:pid="in0">
      <text x="-3" y="-4" class="inputPortLabel">24</text>
    </g>
    <g transform="translate(0,150)" s:x="0" s:y="10" s:pid="in0">
      <text x="-3" y="-4" class="inputPortLabel">25</text>
    </g>
    <g transform="translate(0,170)" s:x="0" s:y="10" s:pid="in0">
      <text x="-3" y="-4" class="inputPortLabel">26</text>
    </g>
    <g transform="translate(0,190)" s:x="0" s:y="10" s:pid="in0">
      <text x="-3" y="-4" class="inputPortLabel">27</text>
    </g>
    <g transform="translate(0,210)" s:x="0" s:y="10" s:pid="in0">
      <text x="-3" y="-4" class="inputPortLabel">28</text>
    </g>
    <g transform="translate(0,230)" s:x="0" s:y="10" s:pid="in0">
      <text x="-3" y="-4" class="inputPortLabel">29</text>
    </g>
  </g>
  <g s:type="join" transform="translate(811,14)" s:width="4" s:height="40" id="cell_$join$,4,5,6,7,8,9,10,11,12,13,14,15,16,17,18,19,20,21,22,22,22,22,22,22,22,22,22,22,22,22,22,22,">
    <rect width="5" height="40" class="splitjoinBody" s:generic="body"/>
    <s:alias val="$_join_"/>
    <g s:x="5" s:y="20" s:pid="out"/>
    <g transform="translate(0,10)" s:x="0" s:y="10" s:pid="in0">
      <text x="-3" y="-4" class="inputPortLabel">0:29</text>
    </g>
    <g transform="translate(0,30)" s:x="0" s:y="10" s:pid="in0">
      <text x="-3" y="-4" class="inputPortLabel">30:31</text>
    </g>
  </g>
  <g s:type="split" transform="translate(113,155)" s:width="5" s:height="40" id="cell_$split$,4,5,6,7,8,9,10,11,12,13,14,15,16,17,18,19,20,21,22,23,24,25,26,27,28,29,30,31,32,33,34,35,">
    <rect width="5" height="120" class="splitjoinBody" s:generic="body"/>
    <s:alias val="$_split_"/>
    <g s:x="0" s:y="20" s:pid="in"/>
    <g transform="translate(4,10)" s:x="4" s:y="10" s:pid="out0">
      <text x="5" y="-4">0:18</text>
    </g>
    <g transform="translate(4,30)" s:x="4" s:y="10" s:pid="out0">
      <text x="5" y="-4">18</text>
    </g>
    <g transform="translate(4,50)" s:x="4" s:y="10" s:pid="out0">
      <text x="5" y="-4">28:31</text>
    </g>
    <g transform="translate(4,70)" s:x="4" s:y="10" s:pid="out0">
      <text x="5" y="-4">25:27</text>
    </g>
    <g transform="translate(4,90)" s:x="4" s:y="10" s:pid="out0">
      <text x="5" y="-4">22:24</text>
    </g>
    <g transform="translate(4,110)" s:x="4" s:y="10" s:pid="out0">
      <text x="5" y="-4">19:21</text>
    </g>
  </g>
  <g s:type="split" transform="translate(657,34)" s:width="5" s:height="40" id="cell_$split$,4,5,6,7,8,9,10,11,12,13,14,15,16,17,18,19,20,21,22,22,22,22,22,22,22,22,22,22,22,22,">
    <rect width="5" height="20" class="splitjoinBody" s:generic="body"/>
    <s:alias val="$_split_"/>
    <g s:x="0" s:y="20" s:pid="in"/>
    <g transform="translate(4,10)" s:x="4" s:y="10" s:pid="out0">
      <text x="5" y="-4">18:19</text>
    </g>
  </g>
  <line x1="1053" x2="1182" y1="370" y2="370" class="net_68,69,70,71,72,73,74,75,76,77,78,79,80,81,82,83,84,85,86,87,88,89,90,91,92,93,94,95,96,97,98,99"/>
  <line x1="1182" x2="1182" y1="370" y2="468.5" class="net_68,69,70,71,72,73,74,75,76,77,78,79,80,81,82,83,84,85,86,87,88,89,90,91,92,93,94,95,96,97,98,99"/>
  <circle cx="1182" cy="370" r="2" style="fill:#000" class="net_68,69,70,71,72,73,74,75,76,77,78,79,80,81,82,83,84,85,86,87,88,89,90,91,92,93,94,95,96,97,98,99"/>
  <line x1="1182" x2="1211.6666666666667" y1="468.5" y2="468.5" class="net_68,69,70,71,72,73,74,75,76,77,78,79,80,81,82,83,84,85,86,87,88,89,90,91,92,93,94,95,96,97,98,99"/>
  <line x1="1053" x2="1182" y1="370" y2="370" class="net_68,69,70,71,72,73,74,75,76,77,78,79,80,81,82,83,84,85,86,87,88,89,90,91,92,93,94,95,96,97,98,99"/>
  <line x1="1182" x2="1182" y1="370" y2="60.5" class="net_68,69,70,71,72,73,74,75,76,77,78,79,80,81,82,83,84,85,86,87,88,89,90,91,92,93,94,95,96,97,98,99"/>
  <line x1="1182" x2="1211.6666666666667" y1="60.5" y2="60.5" class="net_68,69,70,71,72,73,74,75,76,77,78,79,80,81,82,83,84,85,86,87,88,89,90,91,92,93,94,95,96,97,98,99"/>
  <line x1="1053" x2="1390" y1="370" y2="370" class="net_68,69,70,71,72,73,74,75,76,77,78,79,80,81,82,83,84,85,86,87,88,89,90,91,92,93,94,95,96,97,98,99"/>
  <line x1="1052" x2="1211.6666666666667" y1="483.5" y2="483.5" class="net_407,408,409,410,411,412,413,414,415,416,417,418,419,420,421,422,423,424,425,426,427,428,429,430,431,432,433,434,435,436,437,438"/>
  <line x1="1076.3333333333333" x2="1211.6666666666667" y1="75.5" y2="75.5" class="net_439,440,4,5,6,7,8,9,10,11,12,13,14,15,16,17,18,19,20,21,22,22,22,22,22,22,22,22,22,22,22,22"/>
  <line x1="251" x2="322" y1="769" y2="769" class="net_231"/>
  <line x1="322" x2="322" y1="769" y2="1032.5" class="net_231"/>
  <line x1="322" x2="632" y1="1032.5" y2="1032.5" class="net_231"/>
  <line x1="632" x2="632" y1="1032.5" y2="753" class="net_231"/>
  <line x1="632" x2="659" y1="753" y2="753" class="net_231"/>
  <line x1="617" x2="642" y1="503.5" y2="503.5" class="net_232"/>
  <line x1="642" x2="642" y1="503.5" y2="768" class="net_232"/>
  <circle cx="642" cy="503.5" r="2" style="fill:#000" class="net_232"/>
  <line x1="642" x2="659" y1="768" y2="768" class="net_232"/>
  <line x1="617" x2="1267" y1="503.5" y2="503.5" class="net_232"/>
  <line x1="1267" x2="1267" y1="503.5" y2="879" class="net_232"/>
  <line x1="1267" x2="1293" y1="879" y2="879" class="net_232"/>
  <line x1="617" x2="1267" y1="503.5" y2="503.5" class="net_232"/>
  <line x1="1267" x2="1267" y1="503.5" y2="814" class="net_232"/>
  <circle cx="1267" cy="814" r="2" style="fill:#000" class="net_232"/>
  <line x1="1267" x2="1293" y1="814" y2="814" class="net_232"/>
  <line x1="251" x2="332" y1="749" y2="749" class="net_234"/>
  <line x1="332" x2="332" y1="749" y2="1021.5" class="net_234"/>
  <line x1="332" x2="1257" y1="1021.5" y2="1021.5" class="net_234"/>
  <line x1="1257" x2="1257" y1="1021.5" y2="864" class="net_234"/>
  <line x1="1257" x2="1293" y1="864" y2="864" class="net_234"/>
  <line x1="251" x2="352" y1="709" y2="709" class="net_235"/>
  <line x1="352" x2="352" y1="709" y2="999.5" class="net_235"/>
  <line x1="352" x2="1247" y1="999.5" y2="999.5" class="net_235"/>
  <line x1="1247" x2="1247" y1="999.5" y2="799" class="net_235"/>
  <line x1="1247" x2="1293" y1="799" y2="799" class="net_235"/>
  <line x1="251" x2="372" y1="649" y2="649" class="net_236"/>
  <line x1="372" x2="372" y1="649" y2="977.5" class="net_236"/>
  <line x1="372" x2="1182" y1="977.5" y2="977.5" class="net_236"/>
  <line x1="1182" x2="1182" y1="977.5" y2="757.5" class="net_236"/>
  <line x1="1182" x2="1207" y1="757.5" y2="757.5" class="net_236"/>
  <line x1="1095.8" x2="1192" y1="670.5" y2="670.5" class="net_237"/>
  <line x1="1192" x2="1192" y1="670.5" y2="772.5" class="net_237"/>
  <line x1="1192" x2="1207" y1="772.5" y2="772.5" class="net_237"/>
  <line x1="248" x2="972" y1="325" y2="325" class="net_3"/>
  <line x1="972" x2="972" y1="325" y2="370" class="net_3"/>
  <line x1="972" x2="1022" y1="370" y2="370" class="net_3"/>
  <line x1="248" x2="332" y1="325" y2="325" class="net_3"/>
  <line x1="332" x2="332" y1="325" y2="503.5" class="net_3"/>
  <circle cx="332" cy="325" r="2" style="fill:#000" class="net_3"/>
  <line x1="332" x2="407" y1="503.5" y2="503.5" class="net_3"/>
  <line x1="248" x2="703" y1="325" y2="325" class="net_3"/>
  <line x1="703" x2="703" y1="325" y2="740.5" class="net_3"/>
  <circle cx="703" cy="325" r="2" style="fill:#000" class="net_3"/>
  <line x1="703" x2="802" y1="740.5" y2="740.5" class="net_3"/>
  <line x1="248" x2="1022" y1="390" y2="390" class="net_2"/>
  <line x1="248" x2="322" y1="390" y2="390" class="net_2"/>
  <line x1="322" x2="322" y1="390" y2="523.5" class="net_2"/>
  <circle cx="322" cy="390" r="2" style="fill:#000" class="net_2"/>
  <line x1="322" x2="407" y1="523.5" y2="523.5" class="net_2"/>
  <line x1="248" x2="713" y1="390" y2="390" class="net_2"/>
  <line x1="713" x2="713" y1="390" y2="660.5" class="net_2"/>
  <circle cx="713" cy="390" r="2" style="fill:#000" class="net_2"/>
  <line x1="713" x2="802" y1="660.5" y2="660.5" class="net_2"/>
  <line x1="1410" x2="1484" y1="588.5" y2="588.5" class="net_239,240,241,242,243,244,245,246,247,248,249,250,251,252,253,254,255,256,257,258,259,260,261,262,263,264,265,266,267,268,269,270"/>
  <line x1="1484" x2="1484" y1="588.5" y2="452.5" class="net_239,240,241,242,243,244,245,246,247,248,249,250,251,252,253,254,255,256,257,258,259,260,261,262,263,264,265,266,267,268,269,270"/>
  <line x1="1484" x2="972" y1="452.5" y2="452.5" class="net_239,240,241,242,243,244,245,246,247,248,249,250,251,252,253,254,255,256,257,258,259,260,261,262,263,264,265,266,267,268,269,270"/>
  <line x1="972" x2="972" y1="452.5" y2="410" class="net_239,240,241,242,243,244,245,246,247,248,249,250,251,252,253,254,255,256,257,258,259,260,261,262,263,264,265,266,267,268,269,270"/>
  <line x1="972" x2="1022" y1="410" y2="410" class="net_239,240,241,242,243,244,245,246,247,248,249,250,251,252,253,254,255,256,257,258,259,260,261,262,263,264,265,266,267,268,269,270"/>
  <line x1="438" x2="567" y1="503.5" y2="503.5" class="net_166"/>
  <line x1="567" x2="567" y1="503.5" y2="523.5" class="net_166"/>
  <line x1="567" x2="982" y1="523.5" y2="523.5" class="net_166"/>
  <line x1="982" x2="982" y1="523.5" y2="430" class="net_166"/>
  <circle cx="567" cy="503.5" r="2" style="fill:#000" class="net_166"/>
  <circle cx="982" cy="523.5" r="2" style="fill:#000" class="net_166"/>
  <line x1="982" x2="1022" y1="430" y2="430" class="net_166"/>
  <line x1="438" x2="592" y1="503.5" y2="503.5" class="net_166"/>
  <line x1="438" x2="567" y1="503.5" y2="503.5" class="net_166"/>
  <line x1="567" x2="567" y1="503.5" y2="523.5" class="net_166"/>
  <line x1="567" x2="1390" y1="523.5" y2="523.5" class="net_166"/>
  <line x1="250" x2="407" y1="543.5" y2="543.5" class="net_441"/>
  <line x1="251" x2="322" y1="669" y2="669" class="net_271"/>
  <line x1="322" x2="322" y1="669" y2="563.5" class="net_271"/>
  <line x1="322" x2="407" y1="563.5" y2="563.5" class="net_271"/>
  <line x1="833" x2="935.3333333333334" y1="680.5" y2="680.5" class="net_132,133,134,135,136,137,138,139,140,141,142,143,144,145,146,147,148,149,150,151,152,153,154,155,156,157,158,159,160,161,162,163"/>
  <line x1="833" x2="892" y1="680.5" y2="680.5" class="net_132,133,134,135,136,137,138,139,140,141,142,143,144,145,146,147,148,149,150,151,152,153,154,155,156,157,158,159,160,161,162,163"/>
  <line x1="892" x2="892" y1="680.5" y2="741.5" class="net_132,133,134,135,136,137,138,139,140,141,142,143,144,145,146,147,148,149,150,151,152,153,154,155,156,157,158,159,160,161,162,163"/>
  <circle cx="892" cy="680.5" r="2" style="fill:#000" class="net_132,133,134,135,136,137,138,139,140,141,142,143,144,145,146,147,148,149,150,151,152,153,154,155,156,157,158,159,160,161,162,163"/>
  <line x1="892" x2="1390" y1="741.5" y2="741.5" class="net_132,133,134,135,136,137,138,139,140,141,142,143,144,145,146,147,148,149,150,151,152,153,154,155,156,157,158,159,160,161,162,163"/>
  <line x1="817" x2="922" y1="34.5" y2="34.5" class="net_4,5,6,7,8,9,10,11,12,13,14,15,16,17,18,19,20,21,22,22,22,22,22,22,22,22,22,22,22,22,22,22"/>
  <line x1="922" x2="922" y1="34.5" y2="700.5" class="net_4,5,6,7,8,9,10,11,12,13,14,15,16,17,18,19,20,21,22,22,22,22,22,22,22,22,22,22,22,22,22,22"/>
  <circle cx="922" cy="34.5" r="2" style="fill:#000" class="net_4,5,6,7,8,9,10,11,12,13,14,15,16,17,18,19,20,21,22,22,22,22,22,22,22,22,22,22,22,22,22,22"/>
  <line x1="922" x2="935.3333333333334" y1="700.5" y2="700.5" class="net_4,5,6,7,8,9,10,11,12,13,14,15,16,17,18,19,20,21,22,22,22,22,22,22,22,22,22,22,22,22,22,22"/>
  <line x1="817" x2="1375" y1="34.5" y2="34.5" class="net_4,5,6,7,8,9,10,11,12,13,14,15,16,17,18,19,20,21,22,22,22,22,22,22,22,22,22,22,22,22,22,22"/>
  <line x1="1375" x2="1375" y1="34.5" y2="598.5" class="net_4,5,6,7,8,9,10,11,12,13,14,15,16,17,18,19,20,21,22,22,22,22,22,22,22,22,22,22,22,22,22,22"/>
  <line x1="1375" x2="1390" y1="598.5" y2="598.5" class="net_4,5,6,7,8,9,10,11,12,13,14,15,16,17,18,19,20,21,22,22,22,22,22,22,22,22,22,22,22,22,22,22"/>
  <line x1="251" x2="912" y1="629" y2="629" class="net_272"/>
  <line x1="912" x2="912" y1="629" y2="720.5" class="net_272"/>
  <line x1="912" x2="945.3333333333334" y1="720.5" y2="720.5" class="net_272"/>
  <line x1="945.3333333333334" x2="945.3333333333334" y1="720.5" y2="705.5" class="net_272"/>
  <line x1="1095.8" x2="1375" y1="650.5" y2="650.5" class="net_100,101,102,103,104,105,106,107,108,109,110,111,112,113,114,115,116,117,118,119,120,121,122,123,124,125,126,127,128,129,130,131"/>
  <line x1="1375" x2="1375" y1="650.5" y2="926.5" class="net_100,101,102,103,104,105,106,107,108,109,110,111,112,113,114,115,116,117,118,119,120,121,122,123,124,125,126,127,128,129,130,131"/>
  <circle cx="1375" cy="650.5" r="2" style="fill:#000" class="net_100,101,102,103,104,105,106,107,108,109,110,111,112,113,114,115,116,117,118,119,120,121,122,123,124,125,126,127,128,129,130,131"/>
  <line x1="1375" x2="1390" y1="926.5" y2="926.5" class="net_100,101,102,103,104,105,106,107,108,109,110,111,112,113,114,115,116,117,118,119,120,121,122,123,124,125,126,127,128,129,130,131"/>
  <line x1="1095.8" x2="1390" y1="650.5" y2="650.5" class="net_100,101,102,103,104,105,106,107,108,109,110,111,112,113,114,115,116,117,118,119,120,121,122,123,124,125,126,127,128,129,130,131"/>
  <line x1="1305" x2="1390" y1="946.5" y2="946.5" class="net_36,37,38,39,40,41,42,43,44,45,46,47,48,49,50,51,52,53,54,55,56,57,58,59,60,61,62,63,64,65,66,67"/>
  <line x1="251" x2="342" y1="729" y2="729" class="net_305"/>
  <line x1="342" x2="342" y1="729" y2="1010.5" class="net_305"/>
  <line x1="342" x2="1400" y1="1010.5" y2="1010.5" class="net_305"/>
  <line x1="1400" x2="1400" y1="1010.5" y2="951.5" class="net_305"/>
  <line x1="1316.3333333333333" x2="1365" y1="486" y2="486" class="net_338,339,340,341,342,343,344,345,346,347,348,349,350,351,352,353,354,355,356,357,358,359,360,361,362,363,364,365,366,367,368,369"/>
  <line x1="1365" x2="1365" y1="486" y2="578.5" class="net_338,339,340,341,342,343,344,345,346,347,348,349,350,351,352,353,354,355,356,357,358,359,360,361,362,363,364,365,366,367,368,369"/>
  <line x1="1365" x2="1390" y1="578.5" y2="578.5" class="net_338,339,340,341,342,343,344,345,346,347,348,349,350,351,352,353,354,355,356,357,358,359,360,361,362,363,364,365,366,367,368,369"/>
  <line x1="251" x2="362" y1="689" y2="689" class="net_370"/>
  <line x1="362" x2="362" y1="689" y2="988.5" class="net_370"/>
  <line x1="362" x2="1365" y1="988.5" y2="988.5" class="net_370"/>
  <line x1="1365" x2="1365" y1="988.5" y2="620.5" class="net_370"/>
  <line x1="1365" x2="1400" y1="620.5" y2="620.5" class="net_370"/>
  <line x1="1400" x2="1400" y1="620.5" y2="603.5" class="net_370"/>
  <line x1="1233.6666666666667" x2="1296.3333333333333" y1="476" y2="476" class="net_167,168,169,170,171,172,173,174,175,176,177,178,179,180,181,182,183,184,185,186,187,188,189,190,191,192,193,194,195,196,197,198"/>
  <line x1="1233.6666666666667" x2="1247" y1="68" y2="68" class="net_199,200,201,202,203,204,205,206,207,208,209,210,211,212,213,214,215,216,217,218,219,220,221,222,223,224,225,226,227,228,229,230"/>
  <line x1="1247" x2="1247" y1="68" y2="496" class="net_199,200,201,202,203,204,205,206,207,208,209,210,211,212,213,214,215,216,217,218,219,220,221,222,223,224,225,226,227,228,229,230"/>
  <line x1="1247" x2="1296.3333333333333" y1="496" y2="496" class="net_199,200,201,202,203,204,205,206,207,208,209,210,211,212,213,214,215,216,217,218,219,220,221,222,223,224,225,226,227,228,229,230"/>
  <line x1="1237" x2="1306.3333333333333" y1="765" y2="765" class="net_238"/>
  <line x1="1306.3333333333333" x2="1306.3333333333333" y1="765" y2="501" class="net_238"/>
  <line x1="833" x2="902" y1="660.5" y2="660.5" class="net_371,372,373,374,375,376,377,378,379,380,381,382,383,384,385,386,387,388,389,390,391,392,393,394,395,396,397,398,399,400,401,402"/>
  <line x1="902" x2="902" y1="660.5" y2="730.5" class="net_371,372,373,374,375,376,377,378,379,380,381,382,383,384,385,386,387,388,389,390,391,392,393,394,395,396,397,398,399,400,401,402"/>
  <line x1="902" x2="972" y1="730.5" y2="730.5" class="net_371,372,373,374,375,376,377,378,379,380,381,382,383,384,385,386,387,388,389,390,391,392,393,394,395,396,397,398,399,400,401,402"/>
  <line x1="972" x2="972" y1="730.5" y2="650.5" class="net_371,372,373,374,375,376,377,378,379,380,381,382,383,384,385,386,387,388,389,390,391,392,393,394,395,396,397,398,399,400,401,402"/>
  <line x1="972" x2="1064.8" y1="650.5" y2="650.5" class="net_371,372,373,374,375,376,377,378,379,380,381,382,383,384,385,386,387,388,389,390,391,392,393,394,395,396,397,398,399,400,401,402"/>
  <line x1="251" x2="982" y1="609" y2="609" class="net_403,404,405,406"/>
  <line x1="982" x2="982" y1="609" y2="670.5" class="net_403,404,405,406"/>
  <line x1="982" x2="1064.8" y1="670.5" y2="670.5" class="net_403,404,405,406"/>
  <line x1="955.3333333333334" x2="1064.8" y1="690.5" y2="690.5" class="net_273,274,275,276,277,278,279,280,281,282,283,284,285,286,287,288,289,290,291,292,293,294,295,296,297,298,299,300,301,302,303,304"/>
  <line x1="118" x2="173" y1="205.5" y2="205.5" class="net_32,33,34,35"/>
  <line x1="173" x2="173" y1="205.5" y2="609" class="net_32,33,34,35"/>
  <line x1="173" x2="220" y1="609" y2="609" class="net_32,33,34,35"/>
  <line x1="118" x2="163" y1="225.5" y2="225.5" class="net_29,30,31"/>
  <line x1="163" x2="163" y1="225.5" y2="1043.5" class="net_29,30,31"/>
  <line x1="163" x2="713" y1="1043.5" y2="1043.5" class="net_29,30,31"/>
  <line x1="713" x2="713" y1="1043.5" y2="680.5" class="net_29,30,31"/>
  <line x1="713" x2="802" y1="680.5" y2="680.5" class="net_29,30,31"/>
  <line x1="118" x2="153" y1="245.5" y2="245.5" class="net_26,27,28"/>
  <line x1="153" x2="153" y1="245.5" y2="1054.5" class="net_26,27,28"/>
  <line x1="153" x2="723" y1="1054.5" y2="1054.5" class="net_26,27,28"/>
  <line x1="723" x2="723" y1="1054.5" y2="700.5" class="net_26,27,28"/>
  <line x1="723" x2="802" y1="700.5" y2="700.5" class="net_26,27,28"/>
  <line x1="117.5" x2="117.5" y1="266" y2="1065.5" class="net_23,24,25"/>
  <line x1="117.5" x2="733" y1="1065.5" y2="1065.5" class="net_23,24,25"/>
  <line x1="733" x2="733" y1="1065.5" y2="720.5" class="net_23,24,25"/>
  <line x1="733" x2="802" y1="720.5" y2="720.5" class="net_23,24,25"/>
  <line x1="689" x2="802" y1="760.5" y2="760.5" class="net_233"/>
  <line x1="1410" x2="1484" y1="936.5" y2="936.5" class="net_306,307,308,309,310,311,312,313,314,315,316,317,318,319,320,321,322,323,324,325,326,327,328,329,330,331,332,333,334,335,336,337"/>
  <line x1="1484" x2="1484" y1="936.5" y2="966.5" class="net_306,307,308,309,310,311,312,313,314,315,316,317,318,319,320,321,322,323,324,325,326,327,328,329,330,331,332,333,334,335,336,337"/>
  <line x1="1484" x2="743" y1="966.5" y2="966.5" class="net_306,307,308,309,310,311,312,313,314,315,316,317,318,319,320,321,322,323,324,325,326,327,328,329,330,331,332,333,334,335,336,337"/>
  <line x1="743" x2="743" y1="966.5" y2="780.5" class="net_306,307,308,309,310,311,312,313,314,315,316,317,318,319,320,321,322,323,324,325,326,327,328,329,330,331,332,333,334,335,336,337"/>
  <line x1="743" x2="802" y1="780.5" y2="780.5" class="net_306,307,308,309,310,311,312,313,314,315,316,317,318,319,320,321,322,323,324,325,326,327,328,329,330,331,332,333,334,335,336,337"/>
  <line x1="1323" x2="1390" y1="871.5" y2="871.5" class="net_164"/>
  <line x1="1323" x2="1390" y1="806.5" y2="806.5" class="net_165"/>
  <line x1="962" x2="1070.3333333333333" y1="65.5" y2="65.5" class="net_439,440"/>
  <line x1="600.6" x2="632" y1="75.5" y2="75.5" class="net_4,5,6,7,8,9,10,11,12,13,14,15,16,17,18,19,20,21,22,22,22,22,22,22,22,22,22,22,22,22"/>
  <line x1="632" x2="632" y1="75.5" y2="85.5" class="net_4,5,6,7,8,9,10,11,12,13,14,15,16,17,18,19,20,21,22,22,22,22,22,22,22,22,22,22,22,22"/>
  <circle cx="632" cy="75.5" r="2" style="fill:#000" class="net_4,5,6,7,8,9,10,11,12,13,14,15,16,17,18,19,20,21,22,22,22,22,22,22,22,22,22,22,22,22"/>
  <line x1="632" x2="1070.3333333333333" y1="85.5" y2="85.5" class="net_4,5,6,7,8,9,10,11,12,13,14,15,16,17,18,19,20,21,22,22,22,22,22,22,22,22,22,22,22,22"/>
  <line x1="600.6" x2="632" y1="75.5" y2="75.5" class="net_4,5,6,7,8,9,10,11,12,13,14,15,16,17,18,19,20,21,22,22,22,22,22,22,22,22,22,22,22,22"/>
  <line x1="632" x2="632" y1="75.5" y2="85.5" class="net_4,5,6,7,8,9,10,11,12,13,14,15,16,17,18,19,20,21,22,22,22,22,22,22,22,22,22,22,22,22"/>
  <line x1="632" x2="703" y1="85.5" y2="85.5" class="net_4,5,6,7,8,9,10,11,12,13,14,15,16,17,18,19,20,21,22,22,22,22,22,22,22,22,22,22,22,22"/>
  <line x1="703" x2="703" y1="85.5" y2="24.5" class="net_4,5,6,7,8,9,10,11,12,13,14,15,16,17,18,19,20,21,22,22,22,22,22,22,22,22,22,22,22,22"/>
  <circle cx="703" cy="85.5" r="2" style="fill:#000" class="net_4,5,6,7,8,9,10,11,12,13,14,15,16,17,18,19,20,21,22,22,22,22,22,22,22,22,22,22,22,22"/>
  <line x1="703" x2="811" y1="24.5" y2="24.5" class="net_4,5,6,7,8,9,10,11,12,13,14,15,16,17,18,19,20,21,22,22,22,22,22,22,22,22,22,22,22,22"/>
  <line x1="600.6" x2="657.5" y1="75.5" y2="75.5" class="net_4,5,6,7,8,9,10,11,12,13,14,15,16,17,18,19,20,21,22,22,22,22,22,22,22,22,22,22,22,22"/>
  <line x1="657.5" x2="657.5" y1="75.5" y2="55" class="net_4,5,6,7,8,9,10,11,12,13,14,15,16,17,18,19,20,21,22,22,22,22,22,22,22,22,22,22,22,22"/>
  <line x1="117.5" x2="117.5" y1="165" y2="43" class="net_4,5,6,7,8,9,10,11,12,13,14,15,16,17,18,19,20,21,22"/>
  <line x1="117.5" x2="595.1" y1="43" y2="43" class="net_4,5,6,7,8,9,10,11,12,13,14,15,16,17,18,19,20,21,22"/>
  <line x1="595.1" x2="595.1" y1="43" y2="65" class="net_4,5,6,7,8,9,10,11,12,13,14,15,16,17,18,19,20,21,22"/>
  <line x1="118" x2="567" y1="185.5" y2="185.5" class="net_22"/>
  <line x1="567" x2="567" y1="185.5" y2="85.5" class="net_22"/>
  <line x1="567" x2="594.6" y1="85.5" y2="85.5" class="net_22"/>
  <line x1="118" x2="567" y1="185.5" y2="185.5" class="net_22"/>
  <line x1="567" x2="567" y1="185.5" y2="105.5" class="net_22"/>
  <circle cx="567" cy="105.5" r="2" style="fill:#000" class="net_22"/>
  <line x1="567" x2="594.6" y1="105.5" y2="105.5" class="net_22"/>
  <line x1="118" x2="567" y1="185.5" y2="185.5" class="net_22"/>
  <line x1="567" x2="567" y1="185.5" y2="125.5" class="net_22"/>
  <circle cx="567" cy="125.5" r="2" style="fill:#000" class="net_22"/>
  <line x1="567" x2="594.6" y1="125.5" y2="125.5" class="net_22"/>
  <line x1="118" x2="567" y1="185.5" y2="185.5" class="net_22"/>
  <line x1="567" x2="567" y1="185.5" y2="145.5" class="net_22"/>
  <circle cx="567" cy="145.5" r="2" style="fill:#000" class="net_22"/>
  <line x1="567" x2="594.6" y1="145.5" y2="145.5" class="net_22"/>
  <line x1="118" x2="567" y1="185.5" y2="185.5" class="net_22"/>
  <line x1="567" x2="567" y1="185.5" y2="165.5" class="net_22"/>
  <circle cx="567" cy="165.5" r="2" style="fill:#000" class="net_22"/>
  <line x1="567" x2="594.6" y1="165.5" y2="165.5" class="net_22"/>
  <line x1="118" x2="594.6" y1="185.5" y2="185.5" class="net_22"/>
  <line x1="118" x2="567" y1="185.5" y2="185.5" class="net_22"/>
  <line x1="567" x2="567" y1="185.5" y2="205.5" class="net_22"/>
  <circle cx="567" cy="205.5" r="2" style="fill:#000" class="net_22"/>
  <line x1="567" x2="594.6" y1="205.5" y2="205.5" class="net_22"/>
  <line x1="118" x2="567" y1="185.5" y2="185.5" class="net_22"/>
  <line x1="567" x2="567" y1="185.5" y2="225.5" class="net_22"/>
  <circle cx="567" cy="225.5" r="2" style="fill:#000" class="net_22"/>
  <line x1="567" x2="594.6" y1="225.5" y2="225.5" class="net_22"/>
  <line x1="118" x2="567" y1="185.5" y2="185.5" class="net_22"/>
  <line x1="567" x2="567" y1="185.5" y2="245.5" class="net_22"/>
  <circle cx="567" cy="245.5" r="2" style="fill:#000" class="net_22"/>
  <line x1="567" x2="594.6" y1="245.5" y2="245.5" class="net_22"/>
  <line x1="118" x2="567" y1="185.5" y2="185.5" class="net_22"/>
  <line x1="567" x2="567" y1="185.5" y2="315" class="net_22"/>
  <line x1="567" x2="595.1" y1="315" y2="315" class="net_22"/>
  <line x1="595.1" x2="595.1" y1="315" y2="266" class="net_22"/>
  <line x1="118" x2="567" y1="185.5" y2="185.5" class="net_22"/>
  <line x1="567" x2="567" y1="185.5" y2="305" class="net_22"/>
  <line x1="567" x2="595.1" y1="305" y2="305" class="net_22"/>
  <circle cx="567" cy="185.5" r="2" style="fill:#000" class="net_22"/>
  <circle cx="567" cy="305" r="2" style="fill:#000" class="net_22"/>
  <line x1="595.1" x2="595.1" y1="305" y2="286" class="net_22"/>
  <line x1="662" x2="811" y1="44.5" y2="44.5" class="net_22,22"/>
  <line x1="40" x2="113" y1="175.5" y2="175.5" class="net_4,5,6,7,8,9,10,11,12,13,14,15,16,17,18,19,20,21,22,23,24,25,26,27,28,29,30,31,32,33,34,35"/>
</svg>
