<svg xmlns="http://www.w3.org/2000/svg" xmlns:xlink="http://www.w3.org/1999/xlink" xmlns:s="https://github.com/nturley/netlistsvg" width="1353" height="1263">
  <style>svg {
    stroke:#000;
    fill:none;
  }
  text {
    fill:#000;
    stroke:none;
    font-size:10px;
    font-weight: bold;
    font-family: "Courier New", monospace;
  }
  .nodelabel {
    text-anchor: middle;
  }
  .inputPortLabel {
    text-anchor: end;
  }
  .splitjoinBody {
    fill:#000;
  }</style>
  <g s:type="add" transform="translate(826.6666666666666,161)" s:width="25" s:height="25" id="cell_$add$Single-Cycle$20MIPS/mips_single_cycle.v:297$465">
    <s:alias val="$add"/>
    <circle r="12.5" cx="12.5" cy="12.5" class="cell_$add$Single-Cycle$20MIPS/mips_single_cycle.v:297$465"/>
    <line x1="7.5" x2="17.5" y1="12.5" y2="12.5" class="cell_$add$Single-Cycle$20MIPS/mips_single_cycle.v:297$465"/>
    <line x1="12.5" x2="12.5" y1="7.5" y2="17.5" class="cell_$add$Single-Cycle$20MIPS/mips_single_cycle.v:297$465"/>
    <g s:x="3" s:y="5" s:pid="A"/>
    <g s:x="3" s:y="20" s:pid="B"/>
    <g s:x="25" s:y="12.5" s:pid="Y"/>
  </g>
  <g s:type="add" transform="translate(944.6666666666666,787.5)" s:width="25" s:height="25" id="cell_$add$Single-Cycle$20MIPS/mips_single_cycle.v:298$467">
    <s:alias val="$add"/>
    <circle r="12.5" cx="12.5" cy="12.5" class="cell_$add$Single-Cycle$20MIPS/mips_single_cycle.v:298$467"/>
    <line x1="7.5" x2="17.5" y1="12.5" y2="12.5" class="cell_$add$Single-Cycle$20MIPS/mips_single_cycle.v:298$467"/>
    <line x1="12.5" x2="12.5" y1="7.5" y2="17.5" class="cell_$add$Single-Cycle$20MIPS/mips_single_cycle.v:298$467"/>
    <g s:x="3" s:y="5" s:pid="A"/>
    <g s:x="3" s:y="20" s:pid="B"/>
    <g s:x="25" s:y="12.5" s:pid="Y"/>
  </g>
  <g s:type="and" transform="translate(943,967.5)" s:width="30" s:height="25" id="cell_$and$Single-Cycle$20MIPS/mips_single_cycle.v:300$468">
    <s:alias val="$and"/>
    <s:alias val="$logic_and"/>
    <s:alias val="$_AND_"/>
    <path d="M0,0 L0,25 L15,25 A15 12.5 0 0 0 15,0 Z" class="cell_$and$Single-Cycle$20MIPS/mips_single_cycle.v:300$468"/>
    <g s:x="0" s:y="5" s:pid="A"/>
    <g s:x="0" s:y="20" s:pid="B"/>
    <g s:x="30" s:y="12.5" s:pid="Y"/>
  </g>
  <g s:type="generic" transform="translate(1158,1026)" s:width="30" s:height="40" id="cell_$procdff$1284">
    <text x="15" y="-4" class="nodelabel cell_$procdff$1284" s:attribute="ref">$adff</text>
    <rect width="30" height="60" s:generic="body" class="cell_$procdff$1284"/>
    <g transform="translate(0,10)" s:x="0" s:y="10" s:pid="in0" id="port_$procdff$1284~ARST">
      <text x="-3" y="-4" class="inputPortLabel cell_$procdff$1284">ARST</text>
    </g>
    <g transform="translate(0,30)" s:x="0" s:y="10" s:pid="in0" id="port_$procdff$1284~CLK">
      <text x="-3" y="-4" class="inputPortLabel cell_$procdff$1284">CLK</text>
    </g>
    <g transform="translate(0,50)" s:x="0" s:y="10" s:pid="in0" id="port_$procdff$1284~D">
      <text x="-3" y="-4" class="inputPortLabel cell_$procdff$1284">D</text>
    </g>
    <g transform="translate(30,10)" s:x="30" s:y="10" s:pid="out0" id="port_$procdff$1284~Q">
      <text x="5" y="-4" style="fill:#000; stroke:none" class="cell_$procdff$1284">Q</text>
    </g>
  </g>
  <g s:type="mux" transform="translate(415.3333333333333,261)" s:width="20" s:height="40" id="cell_$ternary$Single-Cycle$20MIPS/mips_single_cycle.v:254$462">
    <s:alias val="$pmux"/>
    <s:alias val="$mux"/>
    <s:alias val="$_MUX_"/>
    <path d="M0,0 L20,10 L20,30 L0,40 Z" class="cell_$ternary$Single-Cycle$20MIPS/mips_single_cycle.v:254$462"/>
    <g s:x="0" s:y="10" s:pid="A"/>
    <g s:x="0" s:y="30" s:pid="B"/>
    <g s:x="10" s:y="35" s:pid="S"/>
    <g s:x="20" s:y="20" s:pid="Y"/>
  </g>
  <g s:type="mux" transform="translate(641.6666666666666,902.5)" s:width="20" s:height="40" id="cell_$ternary$Single-Cycle$20MIPS/mips_single_cycle.v:275$463">
    <s:alias val="$pmux"/>
    <s:alias val="$mux"/>
    <s:alias val="$_MUX_"/>
    <path d="M0,0 L20,10 L20,30 L0,40 Z" class="cell_$ternary$Single-Cycle$20MIPS/mips_single_cycle.v:275$463"/>
    <g s:x="0" s:y="10" s:pid="A"/>
    <g s:x="0" s:y="30" s:pid="B"/>
    <g s:x="10" s:y="35" s:pid="S"/>
    <g s:x="20" s:y="20" s:pid="Y"/>
  </g>
  <g s:type="mux" transform="translate(1271,1161)" s:width="20" s:height="40" id="cell_$ternary$Single-Cycle$20MIPS/mips_single_cycle.v:287$464">
    <s:alias val="$pmux"/>
    <s:alias val="$mux"/>
    <s:alias val="$_MUX_"/>
    <path d="M0,0 L20,10 L20,30 L0,40 Z" class="cell_$ternary$Single-Cycle$20MIPS/mips_single_cycle.v:287$464"/>
    <g s:x="0" s:y="10" s:pid="A"/>
    <g s:x="0" s:y="30" s:pid="B"/>
    <g s:x="10" s:y="35" s:pid="S"/>
    <g s:x="20" s:y="20" s:pid="Y"/>
  </g>
  <g s:type="mux" transform="translate(1023,770)" s:width="20" s:height="40" id="cell_$ternary$Single-Cycle$20MIPS/mips_single_cycle.v:301$469">
    <s:alias val="$pmux"/>
    <s:alias val="$mux"/>
    <s:alias val="$_MUX_"/>
    <path d="M0,0 L20,10 L20,30 L0,40 Z" class="cell_$ternary$Single-Cycle$20MIPS/mips_single_cycle.v:301$469"/>
    <g s:x="0" s:y="10" s:pid="A"/>
    <g s:x="0" s:y="30" s:pid="B"/>
    <g s:x="10" s:y="35" s:pid="S"/>
    <g s:x="20" s:y="20" s:pid="Y"/>
  </g>
  <g s:type="mux" transform="translate(1078,1056.5)" s:width="20" s:height="40" id="cell_$ternary$Single-Cycle$20MIPS/mips_single_cycle.v:301$470">
    <s:alias val="$pmux"/>
    <s:alias val="$mux"/>
    <s:alias val="$_MUX_"/>
    <path d="M0,0 L20,10 L20,30 L0,40 Z" class="cell_$ternary$Single-Cycle$20MIPS/mips_single_cycle.v:301$470"/>
    <g s:x="0" s:y="10" s:pid="A"/>
    <g s:x="0" s:y="30" s:pid="B"/>
    <g s:x="10" s:y="35" s:pid="S"/>
    <g s:x="20" s:y="20" s:pid="Y"/>
  </g>
  <g s:type="generic" transform="translate(833,872)" s:width="30" s:height="40" id="cell_ALU">
    <text x="15" y="-4" class="nodelabel cell_ALU" s:attribute="ref">mips_alu</text>
    <rect width="30" height="60" s:generic="body" class="cell_ALU"/>
    <g transform="translate(0,10)" s:x="0" s:y="10" s:pid="in0" id="port_ALU~a">
      <text x="-3" y="-4" class="inputPortLabel cell_ALU">a</text>
    </g>
    <g transform="translate(0,30)" s:x="0" s:y="10" s:pid="in0" id="port_ALU~alu_control">
      <text x="-3" y="-4" class="inputPortLabel cell_ALU">alu_control</text>
    </g>
    <g transform="translate(0,50)" s:x="0" s:y="10" s:pid="in0" id="port_ALU~b">
      <text x="-3" y="-4" class="inputPortLabel cell_ALU">b</text>
    </g>
    <g transform="translate(30,10)" s:x="30" s:y="10" s:pid="out0" id="port_ALU~result">
      <text x="5" y="-4" style="fill:#000; stroke:none" class="cell_ALU">result</text>
    </g>
    <g transform="translate(30,30)" s:x="30" s:y="10" s:pid="out0" id="port_ALU~zero">
      <text x="5" y="-4" style="fill:#000; stroke:none" class="cell_ALU">zero</text>
    </g>
  </g>
  <g s:type="generic" transform="translate(628,333)" s:width="30" s:height="40" id="cell_ALU_DEC">
    <text x="15" y="-4" class="nodelabel cell_ALU_DEC" s:attribute="ref">mips_alu_decoder</text>
    <rect width="30" height="40" s:generic="body" class="cell_ALU_DEC"/>
    <g transform="translate(0,10)" s:x="0" s:y="10" s:pid="in0" id="port_ALU_DEC~alu_op">
      <text x="-3" y="-4" class="inputPortLabel cell_ALU_DEC">alu_op</text>
    </g>
    <g transform="translate(0,30)" s:x="0" s:y="10" s:pid="in0" id="port_ALU_DEC~funct">
      <text x="-3" y="-4" class="inputPortLabel cell_ALU_DEC">funct</text>
    </g>
    <g transform="translate(30,10)" s:x="30" s:y="10" s:pid="out0" id="port_ALU_DEC~alu_control">
      <text x="5" y="-4" style="fill:#000; stroke:none" class="cell_ALU_DEC">alu_control</text>
    </g>
  </g>
  <g s:type="generic" transform="translate(260,922)" s:width="30" s:height="40" id="cell_CTRL">
    <text x="15" y="-4" class="nodelabel cell_CTRL" s:attribute="ref">mips_control_unit</text>
    <rect width="30" height="160" s:generic="body" class="cell_CTRL"/>
    <g transform="translate(0,10)" s:x="0" s:y="10" s:pid="in0" id="port_CTRL~funct">
      <text x="-3" y="-4" class="inputPortLabel cell_CTRL">funct</text>
    </g>
    <g transform="translate(0,30)" s:x="0" s:y="10" s:pid="in0" id="port_CTRL~opcode">
      <text x="-3" y="-4" class="inputPortLabel cell_CTRL">opcode</text>
    </g>
    <g transform="translate(30,10)" s:x="30" s:y="10" s:pid="out0" id="port_CTRL~alu_op">
      <text x="5" y="-4" style="fill:#000; stroke:none" class="cell_CTRL">alu_op</text>
    </g>
    <g transform="translate(30,30)" s:x="30" s:y="10" s:pid="out0" id="port_CTRL~alu_src">
      <text x="5" y="-4" style="fill:#000; stroke:none" class="cell_CTRL">alu_src</text>
    </g>
    <g transform="translate(30,50)" s:x="30" s:y="10" s:pid="out0" id="port_CTRL~branch">
      <text x="5" y="-4" style="fill:#000; stroke:none" class="cell_CTRL">branch</text>
    </g>
    <g transform="translate(30,70)" s:x="30" s:y="10" s:pid="out0" id="port_CTRL~jump">
      <text x="5" y="-4" style="fill:#000; stroke:none" class="cell_CTRL">jump</text>
    </g>
    <g transform="translate(30,90)" s:x="30" s:y="10" s:pid="out0" id="port_CTRL~mem_to_reg">
      <text x="5" y="-4" style="fill:#000; stroke:none" class="cell_CTRL">mem_to_reg</text>
    </g>
    <g transform="translate(30,110)" s:x="30" s:y="10" s:pid="out0" id="port_CTRL~mem_write">
      <text x="5" y="-4" style="fill:#000; stroke:none" class="cell_CTRL">mem_write</text>
    </g>
    <g transform="translate(30,130)" s:x="30" s:y="10" s:pid="out0" id="port_CTRL~reg_dst">
      <text x="5" y="-4" style="fill:#000; stroke:none" class="cell_CTRL">reg_dst</text>
    </g>
    <g transform="translate(30,150)" s:x="30" s:y="10" s:pid="out0" id="port_CTRL~reg_write">
      <text x="5" y="-4" style="fill:#000; stroke:none" class="cell_CTRL">reg_write</text>
    </g>
  </g>
  <g s:type="generic" transform="translate(501,190.5)" s:width="30" s:height="40" id="cell_REGFILE">
    <text x="15" y="-4" class="nodelabel cell_REGFILE" s:attribute="ref">mips_register_file</text>
    <rect width="30" height="140" s:generic="body" class="cell_REGFILE"/>
    <g transform="translate(0,10)" s:x="0" s:y="10" s:pid="in0" id="port_REGFILE~clk">
      <text x="-3" y="-4" class="inputPortLabel cell_REGFILE">clk</text>
    </g>
    <g transform="translate(0,30)" s:x="0" s:y="10" s:pid="in0" id="port_REGFILE~ra1">
      <text x="-3" y="-4" class="inputPortLabel cell_REGFILE">ra1</text>
    </g>
    <g transform="translate(0,50)" s:x="0" s:y="10" s:pid="in0" id="port_REGFILE~ra2">
      <text x="-3" y="-4" class="inputPortLabel cell_REGFILE">ra2</text>
    </g>
    <g transform="translate(0,70)" s:x="0" s:y="10" s:pid="in0" id="port_REGFILE~rst">
      <text x="-3" y="-4" class="inputPortLabel cell_REGFILE">rst</text>
    </g>
    <g transform="translate(0,90)" s:x="0" s:y="10" s:pid="in0" id="port_REGFILE~wa3">
      <text x="-3" y="-4" class="inputPortLabel cell_REGFILE">wa3</text>
    </g>
    <g transform="translate(0,110)" s:x="0" s:y="10" s:pid="in0" id="port_REGFILE~wd3">
      <text x="-3" y="-4" class="inputPortLabel cell_REGFILE">wd3</text>
    </g>
    <g transform="translate(0,130)" s:x="0" s:y="10" s:pid="in0" id="port_REGFILE~we3">
      <text x="-3" y="-4" class="inputPortLabel cell_REGFILE">we3</text>
    </g>
    <g transform="translate(30,10)" s:x="30" s:y="10" s:pid="out0" id="port_REGFILE~rd1">
      <text x="5" y="-4" style="fill:#000; stroke:none" class="cell_REGFILE">rd1</text>
    </g>
    <g transform="translate(30,30)" s:x="30" s:y="10" s:pid="out0" id="port_REGFILE~rd2">
      <text x="5" y="-4" style="fill:#000; stroke:none" class="cell_REGFILE">rd2</text>
    </g>
  </g>
  <g s:type="inputExt" transform="translate(412,64)" s:width="30" s:height="20" id="cell_clk">
    <text x="15" y="-4" class="nodelabel cell_clk" s:attribute="ref">clk</text>
    <s:alias val="$_inputExt_"/>
    <path d="M0,0 L0,20 L15,20 L30,10 L15,0 Z" class="cell_clk"/>
    <g s:x="28" s:y="10" s:pid="Y"/>
  </g>
  <g s:type="inputExt" transform="translate(412,129)" s:width="30" s:height="20" id="cell_rst">
    <text x="15" y="-4" class="nodelabel cell_rst" s:attribute="ref">rst</text>
    <s:alias val="$_inputExt_"/>
    <path d="M0,0 L0,20 L15,20 L30,10 L15,0 Z" class="cell_rst"/>
    <g s:x="28" s:y="10" s:pid="Y"/>
  </g>
  <g s:type="outputExt" transform="translate(1271,1026.5)" s:width="30" s:height="20" id="cell_pc">
    <text x="15" y="-4" class="nodelabel cell_pc" s:attribute="ref">pc</text>
    <s:alias val="$_outputExt_"/>
    <path d="M30,0 L30,20 L15,20 L0,10 L15,0 Z" class="cell_pc"/>
    <g s:x="0" s:y="10" s:pid="A"/>
  </g>
  <g s:type="inputExt" transform="translate(12,61.5)" s:width="30" s:height="20" id="cell_instruction">
    <text x="15" y="-4" class="nodelabel cell_instruction" s:attribute="ref">instruction</text>
    <s:alias val="$_inputExt_"/>
    <path d="M0,0 L0,20 L15,20 L30,10 L15,0 Z" class="cell_instruction"/>
    <g s:x="28" s:y="10" s:pid="Y"/>
  </g>
  <g s:type="outputExt" transform="translate(1271,87)" s:width="30" s:height="20" id="cell_data_addr">
    <text x="15" y="-4" class="nodelabel cell_data_addr" s:attribute="ref">data_addr</text>
    <s:alias val="$_outputExt_"/>
    <path d="M30,0 L30,20 L15,20 L0,10 L15,0 Z" class="cell_data_addr"/>
    <g s:x="0" s:y="10" s:pid="A"/>
  </g>
  <g s:type="outputExt" transform="translate(1271,22)" s:width="30" s:height="20" id="cell_write_data">
    <text x="15" y="-4" class="nodelabel cell_write_data" s:attribute="ref">write_data</text>
    <s:alias val="$_outputExt_"/>
    <path d="M30,0 L30,20 L15,20 L0,10 L15,0 Z" class="cell_write_data"/>
    <g s:x="0" s:y="10" s:pid="A"/>
  </g>
  <g s:type="outputExt" transform="translate(1271,1231)" s:width="30" s:height="20" id="cell_mem_write">
    <text x="15" y="-4" class="nodelabel cell_mem_write" s:attribute="ref">mem_write</text>
    <s:alias val="$_outputExt_"/>
    <path d="M30,0 L30,20 L15,20 L0,10 L15,0 Z" class="cell_mem_write"/>
    <g s:x="0" s:y="10" s:pid="A"/>
  </g>
  <g s:type="inputExt" transform="translate(1158,1181)" s:width="30" s:height="20" id="cell_read_data">
    <text x="15" y="-4" class="nodelabel cell_read_data" s:attribute="ref">read_data</text>
    <s:alias val="$_inputExt_"/>
    <path d="M0,0 L0,20 L15,20 L30,10 L15,0 Z" class="cell_read_data"/>
    <g s:x="28" s:y="10" s:pid="Y"/>
  </g>
  <g s:type="constant" transform="translate(628,171)" s:width="30" s:height="20" id="cell_00000000000000000000000000000100">
    <text x="15" y="-4" class="nodelabel cell_00000000000000000000000000000100" s:attribute="ref">0x4</text>
    <s:alias val="$_constant_"/>
    <rect width="30" height="20" class="cell_00000000000000000000000000000100"/>
    <g s:x="30" s:y="10" s:pid="Y"/>
  </g>
  <g s:type="constant" transform="translate(501,384.5)" s:width="30" s:height="20" id="cell_00">
    <text x="15" y="-4" class="nodelabel cell_00" s:attribute="ref">00</text>
    <s:alias val="$_constant_"/>
    <rect width="30" height="20" class="cell_00"/>
    <g s:x="30" s:y="10" s:pid="Y"/>
  </g>
  <g s:type="join" transform="translate(831.5,787)" s:width="4" s:height="40" id="cell_$join$,439,440,36,37,38,39,40,41,42,43,44,45,46,47,48,49,50,51,51,51,51,51,51,51,51,51,51,51,51,51,51,51,">
    <rect width="5" height="40" class="splitjoinBody" s:generic="body"/>
    <s:alias val="$_join_"/>
    <g s:x="5" s:y="20" s:pid="out"/>
    <g transform="translate(0,10)" s:x="0" s:y="10" s:pid="in0">
      <text x="-3" y="-4" class="inputPortLabel">0:17</text>
    </g>
  </g>
  <g s:type="join" transform="translate(647,777)" s:width="4" s:height="40" id="cell_$join$,439,440,36,37,38,39,40,41,42,43,44,45,46,47,48,49,50,51,">
    <rect width="5" height="40" class="splitjoinBody" s:generic="body"/>
    <s:alias val="$_join_"/>
    <g s:x="5" s:y="20" s:pid="out"/>
    <g transform="translate(0,10)" s:x="0" s:y="10" s:pid="in0">
      <text x="-3" y="-4" class="inputPortLabel">0:1</text>
    </g>
    <g transform="translate(0,30)" s:x="0" s:y="10" s:pid="in0">
      <text x="-3" y="-4" class="inputPortLabel">2:17</text>
    </g>
  </g>
  <g s:type="join" transform="translate(508.07142857142856,437.5)" s:width="4" s:height="40" id="cell_$join$,36,37,38,39,40,41,42,43,44,45,46,47,48,49,50,51,51,51,51,51,51,51,51,51,51,51,51,51,51,51,51,51,">
    <rect width="5" height="340" class="splitjoinBody" s:generic="body"/>
    <s:alias val="$_join_"/>
    <g s:x="5" s:y="20" s:pid="out"/>
    <g transform="translate(0,10)" s:x="0" s:y="10" s:pid="in0">
      <text x="-3" y="-4" class="inputPortLabel">0:15</text>
    </g>
    <g transform="translate(0,30)" s:x="0" s:y="10" s:pid="in0">
      <text x="-3" y="-4" class="inputPortLabel">16</text>
    </g>
    <g transform="translate(0,50)" s:x="0" s:y="10" s:pid="in0">
      <text x="-3" y="-4" class="inputPortLabel">17</text>
    </g>
    <g transform="translate(0,70)" s:x="0" s:y="10" s:pid="in0">
      <text x="-3" y="-4" class="inputPortLabel">18</text>
    </g>
    <g transform="translate(0,90)" s:x="0" s:y="10" s:pid="in0">
      <text x="-3" y="-4" class="inputPortLabel">19</text>
    </g>
    <g transform="translate(0,110)" s:x="0" s:y="10" s:pid="in0">
      <text x="-3" y="-4" class="inputPortLabel">20</text>
    </g>
    <g transform="translate(0,130)" s:x="0" s:y="10" s:pid="in0">
      <text x="-3" y="-4" class="inputPortLabel">21</text>
    </g>
    <g transform="translate(0,150)" s:x="0" s:y="10" s:pid="in0">
      <text x="-3" y="-4" class="inputPortLabel">22</text>
    </g>
    <g transform="translate(0,170)" s:x="0" s:y="10" s:pid="in0">
      <text x="-3" y="-4" class="inputPortLabel">23</text>
    </g>
    <g transform="translate(0,190)" s:x="0" s:y="10" s:pid="in0">
      <text x="-3" y="-4" class="inputPortLabel">24</text>
    </g>
    <g transform="translate(0,210)" s:x="0" s:y="10" s:pid="in0">
      <text x="-3" y="-4" class="inputPortLabel">25</text>
    </g>
    <g transform="translate(0,230)" s:x="0" s:y="10" s:pid="in0">
      <text x="-3" y="-4" class="inputPortLabel">26</text>
    </g>
    <g transform="translate(0,250)" s:x="0" s:y="10" s:pid="in0">
      <text x="-3" y="-4" class="inputPortLabel">27</text>
    </g>
    <g transform="translate(0,270)" s:x="0" s:y="10" s:pid="in0">
      <text x="-3" y="-4" class="inputPortLabel">28</text>
    </g>
    <g transform="translate(0,290)" s:x="0" s:y="10" s:pid="in0">
      <text x="-3" y="-4" class="inputPortLabel">29</text>
    </g>
    <g transform="translate(0,310)" s:x="0" s:y="10" s:pid="in0">
      <text x="-3" y="-4" class="inputPortLabel">30</text>
    </g>
    <g transform="translate(0,330)" s:x="0" s:y="10" s:pid="in0">
      <text x="-3" y="-4" class="inputPortLabel">31</text>
    </g>
  </g>
  <g s:type="join" transform="translate(1037,1066)" s:width="4" s:height="40" id="cell_$join$,439,440,36,37,38,39,40,41,42,43,44,45,46,47,48,49,50,51,52,53,54,55,56,57,58,59,60,61,193,194,195,196,">
    <rect width="5" height="60" class="splitjoinBody" s:generic="body"/>
    <s:alias val="$_join_"/>
    <g s:x="5" s:y="20" s:pid="out"/>
    <g transform="translate(0,10)" s:x="0" s:y="10" s:pid="in0">
      <text x="-3" y="-4" class="inputPortLabel">0:17</text>
    </g>
    <g transform="translate(0,30)" s:x="0" s:y="10" s:pid="in0">
      <text x="-3" y="-4" class="inputPortLabel">18:27</text>
    </g>
    <g transform="translate(0,50)" s:x="0" s:y="10" s:pid="in0">
      <text x="-3" y="-4" class="inputPortLabel">28:31</text>
    </g>
  </g>
  <g s:type="split" transform="translate(113,51)" s:width="5" s:height="40" id="cell_$split$,36,37,38,39,40,41,42,43,44,45,46,47,48,49,50,51,52,53,54,55,56,57,58,59,60,61,62,63,64,65,66,67,">
    <rect width="5" height="160" class="splitjoinBody" s:generic="body"/>
    <s:alias val="$_split_"/>
    <g s:x="0" s:y="20" s:pid="in"/>
    <g transform="translate(4,10)" s:x="4" s:y="10" s:pid="out0">
      <text x="5" y="-4">0:15</text>
    </g>
    <g transform="translate(4,30)" s:x="4" s:y="10" s:pid="out0">
      <text x="5" y="-4">16:20</text>
    </g>
    <g transform="translate(4,50)" s:x="4" s:y="10" s:pid="out0">
      <text x="5" y="-4">11:15</text>
    </g>
    <g transform="translate(4,70)" s:x="4" s:y="10" s:pid="out0">
      <text x="5" y="-4">15</text>
    </g>
    <g transform="translate(4,90)" s:x="4" s:y="10" s:pid="out0">
      <text x="5" y="-4">16:25</text>
    </g>
    <g transform="translate(4,110)" s:x="4" s:y="10" s:pid="out0">
      <text x="5" y="-4">0:5</text>
    </g>
    <g transform="translate(4,130)" s:x="4" s:y="10" s:pid="out0">
      <text x="5" y="-4">26:31</text>
    </g>
    <g transform="translate(4,150)" s:x="4" s:y="10" s:pid="out0">
      <text x="5" y="-4">21:25</text>
    </g>
  </g>
  <g s:type="split" transform="translate(941,1106)" s:width="5" s:height="40" id="cell_$split$,165,166,167,168,169,170,171,172,173,174,175,176,177,178,179,180,181,182,183,184,185,186,187,188,189,190,191,192,193,194,195,196,">
    <rect width="5" height="20" class="splitjoinBody" s:generic="body"/>
    <s:alias val="$_split_"/>
    <g s:x="0" s:y="20" s:pid="in"/>
    <g transform="translate(4,10)" s:x="4" s:y="10" s:pid="out0">
      <text x="5" y="-4">28:31</text>
    </g>
  </g>
  <line x1="1189" x2="1246" y1="1036.5" y2="1036.5" class="net_4,5,6,7,8,9,10,11,12,13,14,15,16,17,18,19,20,21,22,23,24,25,26,27,28,29,30,31,32,33,34,35"/>
  <line x1="1246" x2="1246" y1="1036.5" y2="128" class="net_4,5,6,7,8,9,10,11,12,13,14,15,16,17,18,19,20,21,22,23,24,25,26,27,28,29,30,31,32,33,34,35"/>
  <line x1="1246" x2="756" y1="128" y2="128" class="net_4,5,6,7,8,9,10,11,12,13,14,15,16,17,18,19,20,21,22,23,24,25,26,27,28,29,30,31,32,33,34,35"/>
  <line x1="756" x2="756" y1="128" y2="166" class="net_4,5,6,7,8,9,10,11,12,13,14,15,16,17,18,19,20,21,22,23,24,25,26,27,28,29,30,31,32,33,34,35"/>
  <circle cx="1246" cy="1036.5" r="2" style="fill:#000" class="net_4,5,6,7,8,9,10,11,12,13,14,15,16,17,18,19,20,21,22,23,24,25,26,27,28,29,30,31,32,33,34,35"/>
  <line x1="756" x2="829.6666666666666" y1="166" y2="166" class="net_4,5,6,7,8,9,10,11,12,13,14,15,16,17,18,19,20,21,22,23,24,25,26,27,28,29,30,31,32,33,34,35"/>
  <line x1="1189" x2="1271" y1="1036.5" y2="1036.5" class="net_4,5,6,7,8,9,10,11,12,13,14,15,16,17,18,19,20,21,22,23,24,25,26,27,28,29,30,31,32,33,34,35"/>
  <line x1="658" x2="829.6666666666666" y1="181" y2="181" class="net_407,408,409,410,411,412,413,414,415,416,417,418,419,420,421,422,423,424,425,426,427,428,429,430,431,432,433,434,435,436,437,438"/>
  <line x1="851.6666666666666" x2="931" y1="173.5" y2="173.5" class="net_165,166,167,168,169,170,171,172,173,174,175,176,177,178,179,180,181,182,183,184,185,186,187,188,189,190,191,192,193,194,195,196"/>
  <line x1="931" x2="931" y1="173.5" y2="792.5" class="net_165,166,167,168,169,170,171,172,173,174,175,176,177,178,179,180,181,182,183,184,185,186,187,188,189,190,191,192,193,194,195,196"/>
  <circle cx="931" cy="792.5" r="2" style="fill:#000" class="net_165,166,167,168,169,170,171,172,173,174,175,176,177,178,179,180,181,182,183,184,185,186,187,188,189,190,191,192,193,194,195,196"/>
  <line x1="931" x2="947.6666666666666" y1="792.5" y2="792.5" class="net_165,166,167,168,169,170,171,172,173,174,175,176,177,178,179,180,181,182,183,184,185,186,187,188,189,190,191,192,193,194,195,196"/>
  <line x1="851.6666666666666" x2="931" y1="173.5" y2="173.5" class="net_165,166,167,168,169,170,171,172,173,174,175,176,177,178,179,180,181,182,183,184,185,186,187,188,189,190,191,192,193,194,195,196"/>
  <line x1="931" x2="931" y1="173.5" y2="776.5" class="net_165,166,167,168,169,170,171,172,173,174,175,176,177,178,179,180,181,182,183,184,185,186,187,188,189,190,191,192,193,194,195,196"/>
  <line x1="931" x2="987" y1="776.5" y2="776.5" class="net_165,166,167,168,169,170,171,172,173,174,175,176,177,178,179,180,181,182,183,184,185,186,187,188,189,190,191,192,193,194,195,196"/>
  <line x1="987" x2="987" y1="776.5" y2="780" class="net_165,166,167,168,169,170,171,172,173,174,175,176,177,178,179,180,181,182,183,184,185,186,187,188,189,190,191,192,193,194,195,196"/>
  <circle cx="931" cy="776.5" r="2" style="fill:#000" class="net_165,166,167,168,169,170,171,172,173,174,175,176,177,178,179,180,181,182,183,184,185,186,187,188,189,190,191,192,193,194,195,196"/>
  <line x1="987" x2="1023" y1="780" y2="780" class="net_165,166,167,168,169,170,171,172,173,174,175,176,177,178,179,180,181,182,183,184,185,186,187,188,189,190,191,192,193,194,195,196"/>
  <line x1="851.6666666666666" x2="931" y1="173.5" y2="173.5" class="net_165,166,167,168,169,170,171,172,173,174,175,176,177,178,179,180,181,182,183,184,185,186,187,188,189,190,191,192,193,194,195,196"/>
  <line x1="931" x2="931" y1="173.5" y2="1139" class="net_165,166,167,168,169,170,171,172,173,174,175,176,177,178,179,180,181,182,183,184,185,186,187,188,189,190,191,192,193,194,195,196"/>
  <line x1="931" x2="941.5" y1="1139" y2="1139" class="net_165,166,167,168,169,170,171,172,173,174,175,176,177,178,179,180,181,182,183,184,185,186,187,188,189,190,191,192,193,194,195,196"/>
  <line x1="941.5" x2="941.5" y1="1139" y2="1127" class="net_165,166,167,168,169,170,171,172,173,174,175,176,177,178,179,180,181,182,183,184,185,186,187,188,189,190,191,192,193,194,195,196"/>
  <line x1="837.5" x2="947.6666666666666" y1="807.5" y2="807.5" class="net_439,440,36,37,38,39,40,41,42,43,44,45,46,47,48,49,50,51,51,51,51,51,51,51,51,51,51,51,51,51,51,51"/>
  <line x1="291" x2="943" y1="972.5" y2="972.5" class="net_229"/>
  <line x1="864" x2="921" y1="902.5" y2="902.5" class="net_230"/>
  <line x1="921" x2="921" y1="902.5" y2="987.5" class="net_230"/>
  <line x1="921" x2="943" y1="987.5" y2="987.5" class="net_230"/>
  <line x1="440" x2="1118" y1="139" y2="139" class="net_3"/>
  <line x1="1118" x2="1118" y1="139" y2="1036.5" class="net_3"/>
  <line x1="1118" x2="1158" y1="1036.5" y2="1036.5" class="net_3"/>
  <line x1="440" x2="462" y1="139" y2="139" class="net_3"/>
  <line x1="462" x2="462" y1="139" y2="261" class="net_3"/>
  <circle cx="462" cy="139" r="2" style="fill:#000" class="net_3"/>
  <line x1="462" x2="501" y1="261" y2="261" class="net_3"/>
  <line x1="440" x2="472" y1="74" y2="74" class="net_2"/>
  <line x1="472" x2="472" y1="74" y2="150" class="net_2"/>
  <line x1="472" x2="1108" y1="150" y2="150" class="net_2"/>
  <line x1="1108" x2="1108" y1="150" y2="1056.5" class="net_2"/>
  <circle cx="472" cy="150" r="2" style="fill:#000" class="net_2"/>
  <line x1="1108" x2="1158" y1="1056.5" y2="1056.5" class="net_2"/>
  <line x1="440" x2="472" y1="74" y2="74" class="net_2"/>
  <line x1="472" x2="472" y1="74" y2="201" class="net_2"/>
  <line x1="472" x2="501" y1="201" y2="201" class="net_2"/>
  <line x1="1098" x2="1158" y1="1076.5" y2="1076.5" class="net_232,233,234,235,236,237,238,239,240,241,242,243,244,245,246,247,248,249,250,251,252,253,254,255,256,257,258,259,260,261,262,263"/>
  <line x1="118" x2="203" y1="81.5" y2="81.5" class="net_52,53,54,55,56"/>
  <line x1="203" x2="203" y1="81.5" y2="241" class="net_52,53,54,55,56"/>
  <line x1="203" x2="362" y1="241" y2="241" class="net_52,53,54,55,56"/>
  <line x1="362" x2="362" y1="241" y2="271" class="net_52,53,54,55,56"/>
  <circle cx="362" cy="241" r="2" style="fill:#000" class="net_52,53,54,55,56"/>
  <line x1="362" x2="415.3333333333333" y1="271" y2="271" class="net_52,53,54,55,56"/>
  <line x1="118" x2="203" y1="81.5" y2="81.5" class="net_52,53,54,55,56"/>
  <line x1="203" x2="203" y1="81.5" y2="241" class="net_52,53,54,55,56"/>
  <line x1="203" x2="501" y1="241" y2="241" class="net_52,53,54,55,56"/>
  <line x1="118" x2="193" y1="101.5" y2="101.5" class="net_47,48,49,50,51"/>
  <line x1="193" x2="193" y1="101.5" y2="291" class="net_47,48,49,50,51"/>
  <line x1="193" x2="415.3333333333333" y1="291" y2="291" class="net_47,48,49,50,51"/>
  <line x1="291" x2="372" y1="1052.5" y2="1052.5" class="net_264"/>
  <line x1="372" x2="372" y1="1052.5" y2="311" class="net_264"/>
  <line x1="372" x2="425.3333333333333" y1="311" y2="311" class="net_264"/>
  <line x1="425.3333333333333" x2="425.3333333333333" y1="311" y2="296" class="net_264"/>
  <line x1="532" x2="581" y1="221" y2="221" class="net_100,101,102,103,104,105,106,107,108,109,110,111,112,113,114,115,116,117,118,119,120,121,122,123,124,125,126,127,128,129,130,131"/>
  <line x1="581" x2="581" y1="221" y2="912.5" class="net_100,101,102,103,104,105,106,107,108,109,110,111,112,113,114,115,116,117,118,119,120,121,122,123,124,125,126,127,128,129,130,131"/>
  <circle cx="581" cy="221" r="2" style="fill:#000" class="net_100,101,102,103,104,105,106,107,108,109,110,111,112,113,114,115,116,117,118,119,120,121,122,123,124,125,126,127,128,129,130,131"/>
  <line x1="581" x2="641.6666666666666" y1="912.5" y2="912.5" class="net_100,101,102,103,104,105,106,107,108,109,110,111,112,113,114,115,116,117,118,119,120,121,122,123,124,125,126,127,128,129,130,131"/>
  <line x1="532" x2="581" y1="221" y2="221" class="net_100,101,102,103,104,105,106,107,108,109,110,111,112,113,114,115,116,117,118,119,120,121,122,123,124,125,126,127,128,129,130,131"/>
  <line x1="581" x2="581" y1="221" y2="32" class="net_100,101,102,103,104,105,106,107,108,109,110,111,112,113,114,115,116,117,118,119,120,121,122,123,124,125,126,127,128,129,130,131"/>
  <line x1="581" x2="1271" y1="32" y2="32" class="net_100,101,102,103,104,105,106,107,108,109,110,111,112,113,114,115,116,117,118,119,120,121,122,123,124,125,126,127,128,129,130,131"/>
  <line x1="514.0714285714286" x2="561" y1="458" y2="458" class="net_36,37,38,39,40,41,42,43,44,45,46,47,48,49,50,51,51,51,51,51,51,51,51,51,51,51,51,51,51,51,51,51"/>
  <line x1="561" x2="561" y1="458" y2="932.5" class="net_36,37,38,39,40,41,42,43,44,45,46,47,48,49,50,51,51,51,51,51,51,51,51,51,51,51,51,51,51,51,51,51"/>
  <line x1="561" x2="641.6666666666666" y1="932.5" y2="932.5" class="net_36,37,38,39,40,41,42,43,44,45,46,47,48,49,50,51,51,51,51,51,51,51,51,51,51,51,51,51,51,51,51,51"/>
  <line x1="291" x2="651.6666666666666" y1="952.5" y2="952.5" class="net_270"/>
  <line x1="651.6666666666666" x2="651.6666666666666" y1="952.5" y2="937.5" class="net_270"/>
  <line x1="864" x2="911" y1="882.5" y2="882.5" class="net_68,69,70,71,72,73,74,75,76,77,78,79,80,81,82,83,84,85,86,87,88,89,90,91,92,93,94,95,96,97,98,99"/>
  <line x1="911" x2="911" y1="882.5" y2="1160" class="net_68,69,70,71,72,73,74,75,76,77,78,79,80,81,82,83,84,85,86,87,88,89,90,91,92,93,94,95,96,97,98,99"/>
  <line x1="911" x2="1246" y1="1160" y2="1160" class="net_68,69,70,71,72,73,74,75,76,77,78,79,80,81,82,83,84,85,86,87,88,89,90,91,92,93,94,95,96,97,98,99"/>
  <line x1="1246" x2="1246" y1="1160" y2="1171" class="net_68,69,70,71,72,73,74,75,76,77,78,79,80,81,82,83,84,85,86,87,88,89,90,91,92,93,94,95,96,97,98,99"/>
  <circle cx="911" cy="882.5" r="2" style="fill:#000" class="net_68,69,70,71,72,73,74,75,76,77,78,79,80,81,82,83,84,85,86,87,88,89,90,91,92,93,94,95,96,97,98,99"/>
  <line x1="1246" x2="1271" y1="1171" y2="1171" class="net_68,69,70,71,72,73,74,75,76,77,78,79,80,81,82,83,84,85,86,87,88,89,90,91,92,93,94,95,96,97,98,99"/>
  <line x1="864" x2="911" y1="882.5" y2="882.5" class="net_68,69,70,71,72,73,74,75,76,77,78,79,80,81,82,83,84,85,86,87,88,89,90,91,92,93,94,95,96,97,98,99"/>
  <line x1="911" x2="911" y1="882.5" y2="97" class="net_68,69,70,71,72,73,74,75,76,77,78,79,80,81,82,83,84,85,86,87,88,89,90,91,92,93,94,95,96,97,98,99"/>
  <line x1="911" x2="1271" y1="97" y2="97" class="net_68,69,70,71,72,73,74,75,76,77,78,79,80,81,82,83,84,85,86,87,88,89,90,91,92,93,94,95,96,97,98,99"/>
  <line x1="1186" x2="1271" y1="1191" y2="1191" class="net_133,134,135,136,137,138,139,140,141,142,143,144,145,146,147,148,149,150,151,152,153,154,155,156,157,158,159,160,161,162,163,164"/>
  <line x1="291" x2="382" y1="1012.5" y2="1012.5" class="net_303"/>
  <line x1="382" x2="382" y1="1012.5" y2="1211" class="net_303"/>
  <line x1="382" x2="1281" y1="1211" y2="1211" class="net_303"/>
  <line x1="1281" x2="1281" y1="1211" y2="1196" class="net_303"/>
  <line x1="969.6666666666666" x2="1023" y1="800" y2="800" class="net_197,198,199,200,201,202,203,204,205,206,207,208,209,210,211,212,213,214,215,216,217,218,219,220,221,222,223,224,225,226,227,228"/>
  <line x1="973" x2="1033" y1="980" y2="980" class="net_231"/>
  <line x1="1033" x2="1033" y1="980" y2="805" class="net_231"/>
  <line x1="1043" x2="1053" y1="790" y2="790" class="net_336,337,338,339,340,341,342,343,344,345,346,347,348,349,350,351,352,353,354,355,356,357,358,359,360,361,362,363,364,365,366,367"/>
  <line x1="1053" x2="1053" y1="790" y2="1066.5" class="net_336,337,338,339,340,341,342,343,344,345,346,347,348,349,350,351,352,353,354,355,356,357,358,359,360,361,362,363,364,365,366,367"/>
  <line x1="1053" x2="1078" y1="1066.5" y2="1066.5" class="net_336,337,338,339,340,341,342,343,344,345,346,347,348,349,350,351,352,353,354,355,356,357,358,359,360,361,362,363,364,365,366,367"/>
  <line x1="1043" x2="1078" y1="1086.5" y2="1086.5" class="net_439,440,36,37,38,39,40,41,42,43,44,45,46,47,48,49,50,51,52,53,54,55,56,57,58,59,60,61,193,194,195,196"/>
  <line x1="291" x2="402" y1="992.5" y2="992.5" class="net_368"/>
  <line x1="402" x2="402" y1="992.5" y2="1149" class="net_368"/>
  <line x1="402" x2="1088" y1="1149" y2="1149" class="net_368"/>
  <line x1="1088" x2="1088" y1="1149" y2="1091.5" class="net_368"/>
  <line x1="532" x2="756" y1="201" y2="201" class="net_369,370,371,372,373,374,375,376,377,378,379,380,381,382,383,384,385,386,387,388,389,390,391,392,393,394,395,396,397,398,399,400"/>
  <line x1="756" x2="756" y1="201" y2="882.5" class="net_369,370,371,372,373,374,375,376,377,378,379,380,381,382,383,384,385,386,387,388,389,390,391,392,393,394,395,396,397,398,399,400"/>
  <line x1="756" x2="833" y1="882.5" y2="882.5" class="net_369,370,371,372,373,374,375,376,377,378,379,380,381,382,383,384,385,386,387,388,389,390,391,392,393,394,395,396,397,398,399,400"/>
  <line x1="659" x2="746" y1="343.5" y2="343.5" class="net_401,402,403"/>
  <line x1="746" x2="746" y1="343.5" y2="902.5" class="net_401,402,403"/>
  <line x1="746" x2="833" y1="902.5" y2="902.5" class="net_401,402,403"/>
  <line x1="661.6666666666666" x2="833" y1="922.5" y2="922.5" class="net_271,272,273,274,275,276,277,278,279,280,281,282,283,284,285,286,287,288,289,290,291,292,293,294,295,296,297,298,299,300,301,302"/>
  <line x1="291" x2="402" y1="932.5" y2="932.5" class="net_404,405"/>
  <line x1="402" x2="402" y1="932.5" y2="343.5" class="net_404,405"/>
  <line x1="402" x2="628" y1="343.5" y2="343.5" class="net_404,405"/>
  <line x1="118" x2="173" y1="161.5" y2="161.5" class="net_36,37,38,39,40,41"/>
  <line x1="173" x2="173" y1="161.5" y2="363.5" class="net_36,37,38,39,40,41"/>
  <circle cx="173" cy="363.5" r="2" style="fill:#000" class="net_36,37,38,39,40,41"/>
  <line x1="173" x2="628" y1="363.5" y2="363.5" class="net_36,37,38,39,40,41"/>
  <line x1="118" x2="173" y1="161.5" y2="161.5" class="net_36,37,38,39,40,41"/>
  <line x1="173" x2="173" y1="161.5" y2="932.5" class="net_36,37,38,39,40,41"/>
  <line x1="173" x2="260" y1="932.5" y2="932.5" class="net_36,37,38,39,40,41"/>
  <line x1="118" x2="163" y1="181.5" y2="181.5" class="net_62,63,64,65,66,67"/>
  <line x1="163" x2="163" y1="181.5" y2="952.5" class="net_62,63,64,65,66,67"/>
  <line x1="163" x2="260" y1="952.5" y2="952.5" class="net_62,63,64,65,66,67"/>
  <line x1="117.5" x2="117.5" y1="202" y2="221" class="net_57,58,59,60,61"/>
  <line x1="117.5" x2="501" y1="221" y2="221" class="net_57,58,59,60,61"/>
  <line x1="435.3333333333333" x2="501" y1="281" y2="281" class="net_265,266,267,268,269"/>
  <line x1="1291" x2="1341" y1="1181" y2="1181" class="net_304,305,306,307,308,309,310,311,312,313,314,315,316,317,318,319,320,321,322,323,324,325,326,327,328,329,330,331,332,333,334,335"/>
  <line x1="1341" x2="1341" y1="1181" y2="117" class="net_304,305,306,307,308,309,310,311,312,313,314,315,316,317,318,319,320,321,322,323,324,325,326,327,328,329,330,331,332,333,334,335"/>
  <line x1="1341" x2="452" y1="117" y2="117" class="net_304,305,306,307,308,309,310,311,312,313,314,315,316,317,318,319,320,321,322,323,324,325,326,327,328,329,330,331,332,333,334,335"/>
  <line x1="452" x2="452" y1="117" y2="301" class="net_304,305,306,307,308,309,310,311,312,313,314,315,316,317,318,319,320,321,322,323,324,325,326,327,328,329,330,331,332,333,334,335"/>
  <line x1="452" x2="501" y1="301" y2="301" class="net_304,305,306,307,308,309,310,311,312,313,314,315,316,317,318,319,320,321,322,323,324,325,326,327,328,329,330,331,332,333,334,335"/>
  <line x1="291" x2="392" y1="1072.5" y2="1072.5" class="net_406"/>
  <line x1="392" x2="392" y1="1072.5" y2="321" class="net_406"/>
  <line x1="392" x2="501" y1="321" y2="321" class="net_406"/>
  <line x1="291" x2="362" y1="1032.5" y2="1032.5" class="net_132"/>
  <line x1="362" x2="362" y1="1032.5" y2="1241" class="net_132"/>
  <line x1="362" x2="1271" y1="1241" y2="1241" class="net_132"/>
  <line x1="653" x2="831.5" y1="797.5" y2="797.5" class="net_439,440,36,37,38,39,40,41,42,43,44,45,46,47,48,49,50,51"/>
  <line x1="653" x2="736" y1="797.5" y2="797.5" class="net_439,440,36,37,38,39,40,41,42,43,44,45,46,47,48,49,50,51"/>
  <line x1="736" x2="736" y1="797.5" y2="1076.5" class="net_439,440,36,37,38,39,40,41,42,43,44,45,46,47,48,49,50,51"/>
  <circle cx="736" cy="797.5" r="2" style="fill:#000" class="net_439,440,36,37,38,39,40,41,42,43,44,45,46,47,48,49,50,51"/>
  <line x1="736" x2="1037" y1="1076.5" y2="1076.5" class="net_439,440,36,37,38,39,40,41,42,43,44,45,46,47,48,49,50,51"/>
  <line x1="531" x2="571" y1="394.5" y2="394.5" class="net_439,440"/>
  <line x1="571" x2="571" y1="394.5" y2="787.5" class="net_439,440"/>
  <line x1="571" x2="647" y1="787.5" y2="787.5" class="net_439,440"/>
  <line x1="117.5" x2="117.5" y1="61" y2="39" class="net_36,37,38,39,40,41,42,43,44,45,46,47,48,49,50,51"/>
  <line x1="117.5" x2="213" y1="39" y2="39" class="net_36,37,38,39,40,41,42,43,44,45,46,47,48,49,50,51"/>
  <line x1="213" x2="213" y1="39" y2="807.5" class="net_36,37,38,39,40,41,42,43,44,45,46,47,48,49,50,51"/>
  <line x1="213" x2="647" y1="807.5" y2="807.5" class="net_36,37,38,39,40,41,42,43,44,45,46,47,48,49,50,51"/>
  <line x1="117.5" x2="117.5" y1="61" y2="39" class="net_36,37,38,39,40,41,42,43,44,45,46,47,48,49,50,51"/>
  <line x1="117.5" x2="213" y1="39" y2="39" class="net_36,37,38,39,40,41,42,43,44,45,46,47,48,49,50,51"/>
  <line x1="213" x2="213" y1="39" y2="425.5" class="net_36,37,38,39,40,41,42,43,44,45,46,47,48,49,50,51"/>
  <line x1="213" x2="508.57142857142856" y1="425.5" y2="425.5" class="net_36,37,38,39,40,41,42,43,44,45,46,47,48,49,50,51"/>
  <circle cx="213" cy="425.5" r="2" style="fill:#000" class="net_36,37,38,39,40,41,42,43,44,45,46,47,48,49,50,51"/>
  <line x1="508.57142857142856" x2="508.57142857142856" y1="425.5" y2="447.5" class="net_36,37,38,39,40,41,42,43,44,45,46,47,48,49,50,51"/>
  <line x1="118" x2="183" y1="121.5" y2="121.5" class="net_51"/>
  <line x1="183" x2="183" y1="121.5" y2="414.5" class="net_51"/>
  <line x1="183" x2="508.57142857142856" y1="414.5" y2="414.5" class="net_51"/>
  <circle cx="183" cy="414.5" r="2" style="fill:#000" class="net_51"/>
  <line x1="508.57142857142856" x2="508.57142857142856" y1="414.5" y2="467.5" class="net_51"/>
  <line x1="118" x2="183" y1="121.5" y2="121.5" class="net_51"/>
  <line x1="183" x2="183" y1="121.5" y2="728" class="net_51"/>
  <line x1="183" x2="452" y1="728" y2="728" class="net_51"/>
  <line x1="452" x2="452" y1="728" y2="488" class="net_51"/>
  <circle cx="452" cy="728" r="2" style="fill:#000" class="net_51"/>
  <line x1="452" x2="508.07142857142856" y1="488" y2="488" class="net_51"/>
  <line x1="118" x2="183" y1="121.5" y2="121.5" class="net_51"/>
  <line x1="183" x2="183" y1="121.5" y2="728" class="net_51"/>
  <line x1="183" x2="452" y1="728" y2="728" class="net_51"/>
  <line x1="452" x2="452" y1="728" y2="508" class="net_51"/>
  <circle cx="452" cy="508" r="2" style="fill:#000" class="net_51"/>
  <line x1="452" x2="508.07142857142856" y1="508" y2="508" class="net_51"/>
  <line x1="118" x2="183" y1="121.5" y2="121.5" class="net_51"/>
  <line x1="183" x2="183" y1="121.5" y2="728" class="net_51"/>
  <line x1="183" x2="452" y1="728" y2="728" class="net_51"/>
  <line x1="452" x2="452" y1="728" y2="528" class="net_51"/>
  <circle cx="452" cy="528" r="2" style="fill:#000" class="net_51"/>
  <line x1="452" x2="508.07142857142856" y1="528" y2="528" class="net_51"/>
  <line x1="118" x2="183" y1="121.5" y2="121.5" class="net_51"/>
  <line x1="183" x2="183" y1="121.5" y2="728" class="net_51"/>
  <line x1="183" x2="452" y1="728" y2="728" class="net_51"/>
  <line x1="452" x2="452" y1="728" y2="548" class="net_51"/>
  <circle cx="452" cy="548" r="2" style="fill:#000" class="net_51"/>
  <line x1="452" x2="508.07142857142856" y1="548" y2="548" class="net_51"/>
  <line x1="118" x2="183" y1="121.5" y2="121.5" class="net_51"/>
  <line x1="183" x2="183" y1="121.5" y2="728" class="net_51"/>
  <line x1="183" x2="452" y1="728" y2="728" class="net_51"/>
  <line x1="452" x2="452" y1="728" y2="568" class="net_51"/>
  <circle cx="452" cy="568" r="2" style="fill:#000" class="net_51"/>
  <line x1="452" x2="508.07142857142856" y1="568" y2="568" class="net_51"/>
  <line x1="118" x2="183" y1="121.5" y2="121.5" class="net_51"/>
  <line x1="183" x2="183" y1="121.5" y2="728" class="net_51"/>
  <line x1="183" x2="452" y1="728" y2="728" class="net_51"/>
  <line x1="452" x2="452" y1="728" y2="588" class="net_51"/>
  <circle cx="452" cy="588" r="2" style="fill:#000" class="net_51"/>
  <line x1="452" x2="508.07142857142856" y1="588" y2="588" class="net_51"/>
  <line x1="118" x2="183" y1="121.5" y2="121.5" class="net_51"/>
  <line x1="183" x2="183" y1="121.5" y2="728" class="net_51"/>
  <line x1="183" x2="452" y1="728" y2="728" class="net_51"/>
  <line x1="452" x2="452" y1="728" y2="608" class="net_51"/>
  <circle cx="452" cy="608" r="2" style="fill:#000" class="net_51"/>
  <line x1="452" x2="508.07142857142856" y1="608" y2="608" class="net_51"/>
  <line x1="118" x2="183" y1="121.5" y2="121.5" class="net_51"/>
  <line x1="183" x2="183" y1="121.5" y2="728" class="net_51"/>
  <line x1="183" x2="452" y1="728" y2="728" class="net_51"/>
  <line x1="452" x2="452" y1="728" y2="628" class="net_51"/>
  <circle cx="452" cy="628" r="2" style="fill:#000" class="net_51"/>
  <line x1="452" x2="508.07142857142856" y1="628" y2="628" class="net_51"/>
  <line x1="118" x2="183" y1="121.5" y2="121.5" class="net_51"/>
  <line x1="183" x2="183" y1="121.5" y2="728" class="net_51"/>
  <line x1="183" x2="452" y1="728" y2="728" class="net_51"/>
  <line x1="452" x2="452" y1="728" y2="648" class="net_51"/>
  <circle cx="452" cy="648" r="2" style="fill:#000" class="net_51"/>
  <line x1="452" x2="508.07142857142856" y1="648" y2="648" class="net_51"/>
  <line x1="118" x2="183" y1="121.5" y2="121.5" class="net_51"/>
  <line x1="183" x2="183" y1="121.5" y2="728" class="net_51"/>
  <line x1="183" x2="452" y1="728" y2="728" class="net_51"/>
  <line x1="452" x2="452" y1="728" y2="668" class="net_51"/>
  <circle cx="452" cy="668" r="2" style="fill:#000" class="net_51"/>
  <line x1="452" x2="508.07142857142856" y1="668" y2="668" class="net_51"/>
  <line x1="118" x2="183" y1="121.5" y2="121.5" class="net_51"/>
  <line x1="183" x2="183" y1="121.5" y2="728" class="net_51"/>
  <line x1="183" x2="452" y1="728" y2="728" class="net_51"/>
  <line x1="452" x2="452" y1="728" y2="688" class="net_51"/>
  <circle cx="452" cy="688" r="2" style="fill:#000" class="net_51"/>
  <line x1="452" x2="508.07142857142856" y1="688" y2="688" class="net_51"/>
  <line x1="118" x2="183" y1="121.5" y2="121.5" class="net_51"/>
  <line x1="183" x2="183" y1="121.5" y2="728" class="net_51"/>
  <line x1="183" x2="452" y1="728" y2="728" class="net_51"/>
  <line x1="452" x2="452" y1="728" y2="708" class="net_51"/>
  <circle cx="452" cy="708" r="2" style="fill:#000" class="net_51"/>
  <line x1="452" x2="508.07142857142856" y1="708" y2="708" class="net_51"/>
  <line x1="118" x2="183" y1="121.5" y2="121.5" class="net_51"/>
  <line x1="183" x2="183" y1="121.5" y2="728" class="net_51"/>
  <line x1="183" x2="508.07142857142856" y1="728" y2="728" class="net_51"/>
  <line x1="118" x2="183" y1="121.5" y2="121.5" class="net_51"/>
  <line x1="183" x2="183" y1="121.5" y2="728" class="net_51"/>
  <line x1="183" x2="452" y1="728" y2="728" class="net_51"/>
  <line x1="452" x2="452" y1="728" y2="797.5" class="net_51"/>
  <line x1="452" x2="508.57142857142856" y1="797.5" y2="797.5" class="net_51"/>
  <line x1="508.57142857142856" x2="508.57142857142856" y1="797.5" y2="748.5" class="net_51"/>
  <line x1="118" x2="183" y1="121.5" y2="121.5" class="net_51"/>
  <line x1="183" x2="183" y1="121.5" y2="728" class="net_51"/>
  <line x1="183" x2="452" y1="728" y2="728" class="net_51"/>
  <line x1="452" x2="452" y1="728" y2="787.5" class="net_51"/>
  <line x1="452" x2="508.57142857142856" y1="787.5" y2="787.5" class="net_51"/>
  <circle cx="452" cy="787.5" r="2" style="fill:#000" class="net_51"/>
  <line x1="508.57142857142856" x2="508.57142857142856" y1="787.5" y2="768.5" class="net_51"/>
  <line x1="118" x2="153" y1="141.5" y2="141.5" class="net_52,53,54,55,56,57,58,59,60,61"/>
  <line x1="153" x2="153" y1="141.5" y2="1095" class="net_52,53,54,55,56,57,58,59,60,61"/>
  <line x1="153" x2="987" y1="1095" y2="1095" class="net_52,53,54,55,56,57,58,59,60,61"/>
  <line x1="987" x2="987" y1="1095" y2="1096.5" class="net_52,53,54,55,56,57,58,59,60,61"/>
  <line x1="987" x2="1037" y1="1096.5" y2="1096.5" class="net_52,53,54,55,56,57,58,59,60,61"/>
  <line x1="946" x2="1037" y1="1116.5" y2="1116.5" class="net_193,194,195,196"/>
  <line x1="40" x2="113" y1="71.5" y2="71.5" class="net_36,37,38,39,40,41,42,43,44,45,46,47,48,49,50,51,52,53,54,55,56,57,58,59,60,61,62,63,64,65,66,67"/>
</svg>
